<svg width="64" height="98" viewBox="0 0 64 98" fill="none" xmlns="http://www.w3.org/2000/svg">
<path d="M26.3348 96C17.1304 96 8.17826 93.4531 2 89.8874V71.6769C9.31304 76.134 17.3826 78.8083 24.8217 78.8083C34.1522 78.8083 40.4565 74.4786 40.4565 66.9651C40.4565 59.5791 34.9087 55.2493 23.9391 55.2493H14.1043V40.0952H24.3174C34.0261 40.0952 38.5652 35.6381 38.5652 29.2708C38.5652 22.1394 32.8913 18.1917 24.0652 18.1917C16.3739 18.1917 8.05217 21.248 2.50435 24.941V7.49464C8.17826 3.67426 16.7522 1 25.8304 1C45.3739 1 58.1087 11.0603 58.1087 26.7239C58.1087 35.5107 53.0652 43.0241 45.2478 46.3351V46.5898C54.5783 50.2828 60 58.1783 60 68.2386C60 85.4303 46.2565 96 26.3348 96Z" fill="url(#paint0_linear_469_21498)"/>
<defs>
<linearGradient id="paint0_linear_469_21498" x1="2" y1="48.5" x2="60" y2="48.5" gradientUnits="userSpaceOnUse">
<stop stop-color="#262626"/>
<stop offset="1" stop-color="#121314"/>
</linearGradient>
</defs>
</svg>
