<?xml version="1.0" encoding="UTF-8"?>
<svg id="Layer_1" data-name="Layer 1" xmlns="http://www.w3.org/2000/svg" xmlns:xlink="http://www.w3.org/1999/xlink" viewBox="0 0 17.38 12.61">
  <defs>
    <style>
      .cls-1 {
        fill: url(#linear-gradient);
        stroke-width: 0px;
      }
    </style>
    <linearGradient id="linear-gradient" x1="0" y1="6.31" x2="17.38" y2="6.31" gradientUnits="userSpaceOnUse">
      <stop offset="0" stop-color="#0d5bc2"/>
      <stop offset="1" stop-color="#55beff"/>
    </linearGradient>
  </defs>
  <path class="cls-1" d="m17.28,1.69c-.04-.27-.27-.46-.54-.44-1.15.07-1.76-.29-2.06-.58-.24-.22-.57-.31-.88-.27l-1.58.18-.62-.42c-.23-.15-.52-.2-.78-.13h-.04c-.57.15-1.01.62-1.13,1.21,0,0-.47.19-1.4.56-.94.38-2.33.94-4.18,1.69C.38,4.99,0,7.83,0,9.64v2.97h3.02v-.17c0-1.54,1.25-2.79,2.79-2.79v2.96h2.77v-1.19c0-.98.79-1.77,1.77-1.77v2.96h2.69v-1.81c0-2.11.11-3.32,1.14-4.77.49-.67,3.2-3.6,3.2-3.6l-.1-.74Zm-3.48.61c-.27,0-.48-.22-.48-.49,0-.25.21-.46.48-.46s.47.21.47.46c0,.27-.2.49-.47.49Z"/>
</svg>