<svg width="129" height="15" viewBox="0 0 129 15" fill="none" xmlns="http://www.w3.org/2000/svg">
<path d="M14.2695 0.779532H23.1698V4.12445H18.1547V5.89311H22.3979V9.04565H18.1547V11.3521H23.3971V14.697H14.2717V0.777344L14.2695 0.779532Z" fill="#B5B5B5"/>
<path d="M30.9584 9.66192C30.2037 8.62346 29.5454 7.68121 28.8657 6.6821L28.8271 6.70178C28.8464 7.87359 28.8657 9.06727 28.8657 10.2391V14.699H25.1328V0.779297H28.7714L32.3907 5.81635C33.1454 6.85481 33.8058 7.79707 34.4833 8.79618L34.5219 8.7765C34.5026 7.60469 34.4833 6.41101 34.4833 5.23919V0.779297H38.2162V14.699H34.5777L30.9584 9.66192Z" fill="#B5B5B5"/>
<path d="M42.9922 0.777344L44.2208 4.12445H47.3276V14.697H51.2106V4.12445H55.5482V0.777344H44.2208H42.9922Z" fill="#B5B5B5"/>
<path d="M65.6877 5.79668H60.8226V0.779297H56.9375V14.699H60.8226V9.1416H65.6877V14.699H69.5707V0.779297H65.6877V5.79668Z" fill="#B5B5B5"/>
<path d="M78.3433 0.567383C74.233 0.567383 71.0469 3.71992 71.0469 7.7382C71.0469 11.7565 74.233 14.909 78.3433 14.909C82.4536 14.909 85.6398 11.7565 85.6398 7.7382C85.6398 3.71992 82.4536 0.567383 78.3433 0.567383ZM78.3433 11.352C76.42 11.352 74.9299 9.75608 74.9299 7.7382C74.9299 5.72031 76.42 4.12437 78.3433 4.12437C80.2666 4.12437 81.7568 5.72031 81.7568 7.7382C81.7568 9.75608 80.2666 11.352 78.3433 11.352Z" fill="#B5B5B5"/>
<path d="M94.3672 5.85376L90.8423 0.777344H87.1094V14.697H90.8423V10.1606C90.8423 9.06532 90.823 7.85415 90.8037 6.89221L90.8423 6.87254C91.4083 7.75577 92.0108 8.66087 92.6326 9.5441L94.2729 11.8899L95.8939 9.5441C96.4963 8.65868 97.1203 7.75577 97.6842 6.87254L97.7228 6.89221C97.7035 7.85415 97.6842 9.06532 97.6842 10.1606V14.697H101.569V0.777344H97.8729L94.3651 5.85376H94.3672Z" fill="#B5B5B5"/>
<path d="M108.205 0.779297L102.68 14.699H106.696L107.695 11.8525H112.371L113.334 14.699H117.558L112.032 0.779297H108.205ZM108.733 8.93172L109.204 7.60469C109.524 6.70178 109.79 5.89287 110.053 5.00964H110.092C110.356 5.87538 110.6 6.66243 110.922 7.60469L111.374 8.93172H108.735H108.733Z" fill="#B5B5B5"/>
<path d="M124.876 6.20128C123.216 5.60444 122.161 5.60444 122.161 4.70153C122.161 4.0872 122.652 3.85546 123.369 3.85546C124.329 3.85546 126.141 4.29708 127.781 5.23934V1.58616C126.499 0.932476 124.745 0.567383 123.332 0.567383C120.277 0.567383 118.223 2.27919 118.223 4.99011C118.223 7.23974 119.655 8.27819 121.73 9.00839C123.465 9.62272 124.559 9.62272 124.559 10.624C124.559 11.3345 123.992 11.6231 123.201 11.6231C122.258 11.6231 120.335 11.2012 118.639 10.1999V13.9099C120.015 14.5833 121.769 14.909 123.163 14.909C126.33 14.909 128.499 13.1972 128.499 10.3901C128.499 8.04427 127.009 6.96864 124.88 6.19909L124.876 6.20128Z" fill="#B5B5B5"/>
<path d="M11.2399 7.29205C12.5693 6.09838 12.4985 4.41717 12.4942 4.35377C12.4942 2.38398 10.9226 0.779297 8.98858 0.779297H1.62566H0.5L1.62566 3.83563V14.699H9.11294C11.0855 14.699 12.6893 12.7817 12.6893 10.4249C12.6893 10.3462 12.6722 8.55351 11.2378 7.29205H11.2399ZM4.80325 3.83563H8.2896C8.85779 3.83563 9.32092 4.30786 9.32092 4.88721C9.32092 5.46656 8.85779 5.93878 8.2896 5.93878H4.80325V3.83563ZM8.2167 11.6426H4.80325V8.99512H8.2167C8.93284 8.99512 9.51389 9.58978 9.51389 10.3178C9.51389 11.0458 8.93069 11.6405 8.2167 11.6405V11.6426Z" fill="#B5B5B5"/>
</svg>
