<?xml version="1.0" encoding="UTF-8"?>
<svg id="Layer_1" data-name="Layer 1" xmlns="http://www.w3.org/2000/svg" xmlns:xlink="http://www.w3.org/1999/xlink" viewBox="0 0 98.03 12.61">
  <defs>
    <style>
      .cls-1 {
        fill: url(#linear-gradient);
      }

      .cls-1, .cls-2 {
        stroke-width: 0px;
      }

      .cls-2 {
        fill: #f2f2f2;
      }
    </style>
    <linearGradient id="linear-gradient" x1="0" y1="6.31" x2="17.38" y2="6.31" gradientUnits="userSpaceOnUse">
      <stop offset="0" stop-color="#0d5bc2"/>
      <stop offset="1" stop-color="#55beff"/>
    </linearGradient>
  </defs>
  <path class="cls-1" d="m17.28,1.69c-.04-.27-.27-.46-.54-.44-1.15.07-1.76-.29-2.06-.58-.24-.22-.57-.31-.88-.27l-1.58.18-.62-.42c-.23-.15-.52-.2-.78-.13h-.04c-.57.15-1.01.62-1.13,1.21,0,0-.47.19-1.4.56-.94.38-2.33.94-4.18,1.69C.38,4.99,0,7.83,0,9.64v2.97h3.02v-.17c0-1.54,1.25-2.79,2.79-2.79v2.96h2.77v-1.19c0-.98.79-1.77,1.77-1.77v2.96h2.69v-1.81c0-2.11.11-3.32,1.14-4.77.49-.67,3.2-3.6,3.2-3.6l-.1-.74Zm-3.48.61c-.27,0-.48-.22-.48-.49,0-.25.21-.46.48-.46s.47.21.47.46c0,.27-.2.49-.47.49Z"/>
  <g>
    <g>
      <g>
        <path class="cls-2" d="m29.45,4.29h5.34v1.97h-3.01v1.04h2.55v1.86h-2.55v1.36h3.15v1.97h-5.48V4.29Z"/>
        <path class="cls-2" d="m39.47,9.52c-.45-.61-.85-1.17-1.26-1.75h-.02c.01.7.02,1.4.02,2.09v2.63h-2.24V4.29h2.18l2.17,2.97c.45.61.85,1.17,1.26,1.75h.02c-.01-.7-.02-1.4-.02-2.09v-2.63h2.24v8.2h-2.18l-2.17-2.97Z"/>
      </g>
      <g>
        <polygon class="cls-2" points="46.69 4.29 46.69 6.26 49.29 6.26 49.29 12.48 51.63 12.48 51.63 6.26 54.23 6.26 54.23 4.29 47.43 4.29 46.69 4.29"/>
        <polygon class="cls-2" points="60.32 7.24 57.4 7.24 57.4 4.29 55.06 4.29 55.06 12.48 57.4 12.48 57.4 9.21 60.32 9.21 60.32 12.48 62.65 12.48 62.65 4.29 60.32 4.29 60.32 7.24"/>
        <path class="cls-2" d="m67.92,4.16c-2.47,0-4.38,1.86-4.38,4.22s1.91,4.22,4.38,4.22,4.38-1.86,4.38-4.22-1.91-4.22-4.38-4.22Zm0,6.35c-1.15,0-2.05-.94-2.05-2.13s.89-2.13,2.05-2.13,2.05.94,2.05,2.13-.89,2.13-2.05,2.13Z"/>
        <path class="cls-2" d="m77.53,7.28l-2.12-2.99h-2.24v8.2h2.24v-2.67c0-.65-.01-1.36-.02-1.92h.02c.34.51.7,1.04,1.08,1.56l.98,1.38.97-1.38c.36-.52.74-1.05,1.08-1.57h.02c-.01.58-.02,1.29-.02,1.94v2.67h2.33V4.29h-2.22l-2.11,2.99Z"/>
        <path class="cls-2" d="m85.84,4.29l-3.32,8.2h2.41l.6-1.68h2.81l.58,1.68h2.54l-3.32-8.2h-2.3Zm.32,4.8l.28-.78c.19-.53.35-1.01.51-1.53h.02c.16.51.31.97.5,1.53l.27.78h-1.58Z"/>
        <path class="cls-2" d="m95.85,7.48c-1-.35-1.63-.35-1.63-.88,0-.36.29-.5.72-.5.58,0,1.66.26,2.65.82v-2.15c-.77-.38-1.82-.6-2.67-.6-1.83,0-3.07,1.01-3.07,2.6,0,1.32.86,1.94,2.11,2.37,1.04.36,1.7.36,1.7.95,0,.42-.34.59-.82.59-.57,0-1.72-.25-2.74-.84v2.18c.83.4,1.88.59,2.72.59,1.9,0,3.2-1.01,3.2-2.66,0-1.38-.89-2.02-2.17-2.47Z"/>
      </g>
    </g>
    <path class="cls-2" d="m21.86,12.48h4.49c1.18,0,2.15-1.13,2.15-2.52,0-.05,0-1.1-.87-1.84.8-.7.76-1.69.75-1.73,0-1.16-.94-2.1-2.1-2.1h-4.42s0,8.2,0,8.2Zm1.91-6.4h2.09c.34,0,.62.28.62.62s-.28.62-.62.62h-2.09v-1.24Zm2.05,4.6h-2.05v-1.56h2.05c.43,0,.78.35.78.78s-.35.78-.78.78Z"/>
  </g>
</svg>