<?xml version="1.0" encoding="UTF-8"?><svg id="Layer_1" xmlns="http://www.w3.org/2000/svg" viewBox="0 0 1000 1000"><defs><style>.cls-1{fill:#f2f2f2;}</style></defs><g><g><g><path class="cls-1" d="M349.16,460.42h41.51v15.3h-23.39v8.09h19.79v14.42h-19.79v10.55h24.45v15.3h-42.56v-63.67Z"/><path class="cls-1" d="M426.99,501.05c-3.52-4.75-6.59-9.06-9.76-13.63l-.18,.09c.09,5.36,.18,10.82,.18,16.18v20.4h-17.41v-63.67h16.97l16.88,23.04c3.52,4.75,6.6,9.06,9.76,13.63l.18-.09c-.09-5.36-.18-10.82-.18-16.18v-20.4h17.41v63.67h-16.97l-16.88-23.04Z"/></g><g><polygon class="cls-1" points="483.11 460.41 488.84 475.72 503.33 475.72 503.33 524.08 521.44 524.08 521.44 475.72 541.67 475.72 541.67 460.41 488.84 460.41 483.11 460.41"/><polygon class="cls-1" points="588.96 483.37 566.27 483.37 566.27 460.42 548.15 460.42 548.15 524.09 566.27 524.09 566.27 498.67 588.96 498.67 588.96 524.09 607.07 524.09 607.07 460.42 588.96 460.42 588.96 483.37"/><path class="cls-1" d="M647.99,459.45c-19.17,0-34.03,14.42-34.03,32.8s14.86,32.8,34.03,32.8,34.03-14.42,34.03-32.8-14.86-32.8-34.03-32.8Zm0,49.33c-8.97,0-15.92-7.3-15.92-16.53s6.95-16.53,15.92-16.53,15.92,7.3,15.92,16.53-6.95,16.53-15.92,16.53Z"/><path class="cls-1" d="M722.71,483.63l-16.44-23.22h-17.41v63.67h17.41v-20.75c0-5.01-.09-10.55-.18-14.95l.18-.09c2.64,4.04,5.45,8.18,8.35,12.22l7.65,10.73,7.56-10.73c2.81-4.05,5.72-8.18,8.35-12.22l.18,.09c-.09,4.4-.18,9.94-.18,14.95v20.75h18.12v-63.67h-17.24l-16.36,23.22Z"/><path class="cls-1" d="M787.26,460.42l-25.77,63.67h18.73l4.66-13.02h21.81l4.49,13.02h19.7l-25.77-63.67h-17.85Zm2.46,37.29l2.2-6.07c1.49-4.13,2.73-7.83,3.96-11.87h.18c1.23,3.96,2.37,7.56,3.87,11.87l2.11,6.07h-12.31Z"/><path class="cls-1" d="M865,485.22c-7.74-2.73-12.66-2.73-12.66-6.86,0-2.81,2.29-3.87,5.63-3.87,4.48,0,12.93,2.02,20.58,6.33v-16.71c-5.98-2.99-14.16-4.66-20.75-4.66-14.25,0-23.83,7.83-23.83,20.23,0,10.29,6.68,15.04,16.36,18.38,8.09,2.81,13.19,2.81,13.19,7.39,0,3.25-2.64,4.57-6.33,4.57-4.4,0-13.37-1.93-21.28-6.51v16.97c6.42,3.08,14.6,4.57,21.1,4.57,14.77,0,24.89-7.83,24.89-20.67,0-10.73-6.95-15.65-16.88-19.17Z"/></g></g><path class="cls-1" d="M335.02,490.21c6.2-5.46,5.87-13.15,5.85-13.44,0-9.01-7.33-16.35-16.35-16.35h-34.34s-5.25,0-5.25,0l5.25,13.98v49.69h34.92c9.2,0,16.68-8.77,16.68-19.55,0-.36-.08-8.56-6.77-14.33Zm-30.02-15.81h16.26c2.65,0,4.81,2.16,4.81,4.81s-2.16,4.81-4.81,4.81h-16.26v-9.62Zm15.92,35.71h-15.92v-12.11h15.92c3.34,0,6.05,2.72,6.05,6.05s-2.72,6.05-6.05,6.05Z"/></g><g><polygon class="cls-1" points="175.33 528.72 175.33 528.72 175.33 537.91 175.33 547.11 175.33 547.11 175.33 565.5 175.33 572.39 175.33 572.39 175.34 572.39 193.72 565.5 193.72 503.44 175.33 503.44 175.33 528.72"/><path class="cls-1" d="M205.21,462.08c0,1.38-.3,2.7-.88,3.92-.22,.45-.48,.9-.77,1.32-1.19,1.71-2.94,2.98-4.93,3.57-.84,.25-1.72,.38-2.62,.38H125.01l-6.89-18.38h77.9c.9,0,1.78,.13,2.62,.38,1.98,.59,3.73,1.86,4.92,3.56,.3,.43,.56,.87,.77,1.32,.59,1.23,.88,2.55,.88,3.93Z"/><path class="cls-1" d="M226.5,478.17c1.15-2.17,2.08-4.48,2.74-6.89,.21-.76,.39-1.52,.55-2.3h.02l.12-.71s0-.05,.01-.07c.02-.12,.04-.24,.06-.37,.03-.2,.07-.4,.09-.61,0-.02,0-.04,.01-.06,.01-.06,.02-.11,.03-.17,0-.04,.01-.08,.02-.13,.02-.15,.04-.31,.06-.46,.03-.24,.06-.48,.08-.72,.01-.1,.02-.21,.03-.32,0-.05,0-.1,.01-.15,0-.06,.01-.11,.02-.17,0,0,0-.02,0-.03,0-.04,0-.07,.01-.11,.02-.21,.03-.42,.05-.63v-.03c0-.1,.01-.21,.02-.32,0-.11,.01-.21,.02-.32,0-.07,0-.14,.01-.2,0-.2,.01-.4,.02-.6,0-.24,0-.48,0-.72s0-.48,0-.72c0-.2-.01-.4-.02-.6,0-.07,0-.13-.01-.2-.02-.45-.05-.9-.08-1.35,0-.01,0-.02,0-.03,0-.05,0-.1-.01-.16-.01-.1-.02-.21-.03-.31,0-.04-.01-.09-.01-.13l-.05-.43s0-.01,0-.02c-.01-.11-.03-.21-.04-.32,0-.02,0-.03,0-.05h0c0-.06-.01-.1-.02-.15-.02-.13-.03-.25-.05-.37,0-.05-.01-.1-.02-.15,0-.03,0-.05-.01-.08,0,0,0,0,0-.01,0-.02,0-.04-.01-.06-.03-.2-.06-.4-.09-.61-.02-.12-.04-.24-.06-.36l-.13-.79h-.02c-.16-.78-.34-1.54-.55-2.3-.67-2.41-1.59-4.72-2.74-6.89-5.79-10.93-17.28-18.38-30.48-18.38h-59.75l6.89,18.38h52.85c1.6,0,3.14,.23,4.6,.67,3.52,1.05,6.54,3.28,8.6,6.23,.51,.73,.96,1.49,1.34,2.3,1,2.09,1.55,4.43,1.55,6.89s-.56,4.8-1.55,6.89c-.29,.61-.61,1.19-.97,1.75-.12,.19-.24,.37-.37,.55-2.06,2.95-5.08,5.17-8.6,6.23-1.46,.44-3,.67-4.6,.67h-52.85v68.94h18.38s6.89,0,6.89,0v-18.38h-6.89v-32.17h34.47c1.6,0,3.14,.23,4.6,.67,3.52,1.05,6.54,3.28,8.6,6.23,.51,.73,.95,1.49,1.34,2.3,1,2.09,1.55,4.43,1.55,6.89,0,2.46-.56,4.8-1.55,6.89-.39,.81-.83,1.57-1.34,2.3-2.06,2.95-5.08,5.17-8.6,6.23v18.75c11.24-1.5,20.78-8.44,25.89-18.08,1.15-2.17,2.08-4.48,2.74-6.89,.21-.76,.39-1.52,.55-2.3,.05-.23,.09-.47,.14-.71,0-.03,.01-.05,.02-.08,.02-.12,.04-.24,.06-.36,.03-.2,.07-.4,.09-.61,0-.02,0-.04,.01-.06,0,0,0,0,0-.01,0-.03,0-.05,.01-.08,0-.05,.02-.1,.02-.15,0-.01,0-.03,0-.04,0,.01,0,.03,0,.04,.02-.12,.04-.25,.05-.37,0-.05,.01-.09,.02-.14,0,0,0,0,0,.01,0,0,0-.01,0-.02h0s0-.04,0-.06c0,0,0,0,0,0,0,0,0,0,0,0,.01-.1,.03-.21,.04-.32,0,0,0-.01,0-.02l.05-.43s0-.09,.01-.13c.01-.1,.02-.21,.03-.31,0,0,0,0,0,0,0,0,0,0,0,0,0-.05,0-.1,.01-.16,0-.01,0-.02,0-.03,.04-.45,.07-.9,.08-1.35,0-.07,0-.13,.01-.2,0-.2,.01-.4,.02-.6,0-.24,0-.48,0-.72h0c0-.24,0-.48,0-.72,0-.2-.01-.4-.02-.6,0-.07,0-.13-.01-.2,0-.11,0-.21-.02-.32,0-.11-.01-.21-.02-.32v-.03c-.02-.21-.03-.42-.05-.63,0-.03,0-.07-.01-.11,0,0,0-.02,0-.03,0-.06-.01-.11-.02-.17,0-.05,0-.1-.01-.15-.01-.11-.02-.21-.03-.32-.02-.24-.05-.48-.08-.72-.02-.15-.04-.31-.06-.46,0-.04-.01-.08-.02-.13,0-.06-.02-.11-.03-.17,0-.02,0-.04-.01-.06-.03-.2-.06-.4-.09-.61-.02-.12-.04-.24-.06-.37,0-.02-.01-.05-.01-.07-.02-.1-.04-.19-.06-.29-.03-.14-.05-.28-.08-.42-.16-.78-.34-1.54-.55-2.3-.67-2.42-1.6-4.72-2.74-6.89-1.83-3.45-4.23-6.56-7.07-9.19,2.84-2.63,5.24-5.74,7.07-9.19Z"/><path class="cls-1" d="M235.52,452.89c.04,.19,.09,.38,.13,.57,.04,.19,.08,.38,.12,.57,.04,.19,.07,.39,.11,.58,.03,.19,.07,.38,.1,.58,.05,.28,.09,.57,.14,.85,.03,.23,.06,.45,.09,.68,.01,.08,.02,.16,.03,.23,.01,.08,.02,.15,.03,.23,.02,.18,.04,.36,.06,.54,0,.02,0,.05,0,.07,.03,.22,.05,.43,.06,.65,0,.08,.02,.16,.02,.23,.02,.27,.04,.54,.06,.8,.02,.29,.03,.58,.05,.87s.02,.58,.03,.87c0,.29,.01,.58,.01,.87s0,.58-.01,.87c0,.29-.01,.58-.03,.87-.01,.3-.03,.61-.05,.91-.01,.17-.02,.34-.04,.52,0,.03,0,.05,0,.08,0,.11-.02,.22-.03,.32,0,.02,0,.05,0,.07-.02,.2-.04,.41-.06,.61,0,.05-.01,.11-.02,.16-.02,.16-.03,.32-.05,.47-.02,.16-.04,.31-.06,.46-.03,.25-.07,.5-.1,.76-.04,.27-.08,.53-.13,.79-.05,.29-.1,.59-.16,.88-.02,.1-.04,.19-.06,.29,0,.03,0,.06-.02,.08-.03,.16-.06,.31-.1,.47-.04,.19-.08,.38-.13,.57h8.72l6.89-18.38h-15.61Z"/></g></svg>