<?xml version="1.0" encoding="UTF-8"?>
<svg id="Layer_1" data-name="Layer 1" xmlns="http://www.w3.org/2000/svg" viewBox="0 0 16 18.04">
  <defs>
    <style>
      .cls-1 {
        fill: #f2f2f2;
        stroke-width: 0px;
      }
    </style>
  </defs>
  <polygon class="cls-1" points="6.88 12.78 6.88 12.78 6.88 13.89 6.88 15 6.88 15 6.88 17.21 6.88 18.04 6.88 18.04 6.88 18.04 9.09 17.21 9.09 9.74 6.88 9.74 6.88 12.78"/>
  <path class="cls-1" d="m10.48,4.77c0,.17-.04.32-.11.47-.03.05-.06.11-.09.16-.14.21-.35.36-.59.43-.1.03-.21.05-.31.05H.83l-.83-2.21h9.37c.11,0,.21.02.32.05.24.07.45.22.59.43.04.05.07.11.09.16.07.15.11.31.11.47Z"/>
  <path class="cls-1" d="m13.04,6.7c.14-.26.25-.54.33-.83.03-.09.05-.18.07-.28h0v-.09s.02,0,.02,0c0-.01,0-.03,0-.04,0-.02,0-.05.01-.07,0,0,0,0,0,0,0,0,0-.01,0-.02,0,0,0-.01,0-.02,0-.02,0-.04,0-.06,0-.03,0-.06,0-.09,0-.01,0-.03,0-.04,0,0,0-.01,0-.02,0,0,0-.01,0-.02,0,0,0,0,0,0,0,0,0,0,0-.01,0-.03,0-.05,0-.08h0s0-.03,0-.04c0-.01,0-.03,0-.04,0,0,0-.02,0-.02,0-.02,0-.05,0-.07,0-.03,0-.06,0-.09s0-.06,0-.09c0-.02,0-.05,0-.07,0,0,0-.02,0-.02,0-.05,0-.11-.01-.16,0,0,0,0,0,0,0,0,0-.01,0-.02,0-.01,0-.02,0-.04,0,0,0-.01,0-.02v-.05s0,0,0,0c0-.01,0-.03,0-.04,0,0,0,0,0,0h0s0-.01,0-.02c0-.02,0-.03,0-.04,0,0,0-.01,0-.02,0,0,0,0,0,0,0,0,0,0,0,0,0,0,0,0,0,0,0-.02,0-.05-.01-.07,0-.01,0-.03,0-.04l-.02-.09h0c-.02-.09-.04-.19-.07-.28-.08-.29-.19-.57-.33-.83-.7-1.31-2.08-2.21-3.67-2.21H2.18l.83,2.21h6.36c.19,0,.38.03.55.08.42.13.79.39,1.03.75.06.09.11.18.16.28.12.25.19.53.19.83s-.07.58-.19.83c-.03.07-.07.14-.12.21-.01.02-.03.04-.04.07-.25.35-.61.62-1.03.75-.18.05-.36.08-.55.08H3.01v8.29h2.21s.83,0,.83,0v-2.21h-.83v-3.87h4.15c.19,0,.38.03.55.08.42.13.79.39,1.03.75.06.09.11.18.16.28.12.25.19.53.19.83,0,.3-.07.58-.19.83-.05.1-.1.19-.16.28-.25.35-.61.62-1.03.75v2.25c1.35-.18,2.5-1.02,3.11-2.17.14-.26.25-.54.33-.83.03-.09.05-.18.07-.28,0-.03.01-.06.02-.09,0,0,0,0,0,0,0-.01,0-.03,0-.04,0-.02,0-.05.01-.07,0,0,0,0,0,0,0,0,0,0,0,0,0,0,0,0,0,0,0,0,0-.01,0-.02,0,0,0,0,0,0,0,0,0,0,0,0,0-.01,0-.03,0-.04,0,0,0-.01,0-.02,0,0,0,0,0,0,0,0,0,0,0,0h0s0,0,0,0c0,0,0,0,0,0,0,0,0,0,0,0,0-.01,0-.03,0-.04,0,0,0,0,0,0v-.05s0-.01,0-.02c0-.01,0-.02,0-.04,0,0,0,0,0,0,0,0,0,0,0,0,0,0,0-.01,0-.02,0,0,0,0,0,0,0-.05,0-.11.01-.16,0,0,0-.02,0-.02,0-.02,0-.05,0-.07,0-.03,0-.06,0-.09h0s0-.06,0-.09c0-.02,0-.05,0-.07,0,0,0-.02,0-.02,0-.01,0-.03,0-.04,0-.01,0-.03,0-.04h0s0-.05,0-.08c0,0,0,0,0-.01,0,0,0,0,0,0,0,0,0-.01,0-.02,0,0,0-.01,0-.02,0-.01,0-.03,0-.04,0-.03,0-.06,0-.09,0-.02,0-.04,0-.06,0,0,0,0,0-.02,0,0,0-.01,0-.02,0,0,0,0,0,0,0-.02,0-.05-.01-.07,0-.01,0-.03,0-.04,0,0,0,0,0,0,0-.01,0-.02,0-.04,0-.02,0-.03,0-.05-.02-.09-.04-.19-.07-.28-.08-.29-.19-.57-.33-.83-.22-.42-.51-.79-.85-1.11.34-.32.63-.69.85-1.11Z"/>
  <path class="cls-1" d="m14.12,3.66s.01.05.02.07c0,.02,0,.05.01.07,0,.02,0,.05.01.07,0,.02,0,.05.01.07,0,.03.01.07.02.1,0,.03,0,.05.01.08,0,0,0,.02,0,.03,0,0,0,.02,0,.03,0,.02,0,.04,0,.06,0,0,0,0,0,0,0,.03,0,.05,0,.08,0,0,0,.02,0,.03,0,.03,0,.06,0,.1,0,.03,0,.07,0,.1s0,.07,0,.1c0,.03,0,.07,0,.1s0,.07,0,.1c0,.04,0,.07,0,.1,0,.04,0,.07,0,.11,0,.02,0,.04,0,.06,0,0,0,0,0,0,0,.01,0,.03,0,.04,0,0,0,0,0,0,0,.02,0,.05,0,.07,0,0,0,.01,0,.02,0,.02,0,.04,0,.06,0,.02,0,.04,0,.06,0,.03,0,.06-.01.09,0,.03,0,.06-.02.1,0,.04-.01.07-.02.11,0,.01,0,.02,0,.04,0,0,0,0,0,.01,0,.02,0,.04-.01.06,0,.02,0,.05-.02.07h1.05l.83-2.21h-1.88Z"/>
</svg>