<svg width="97" height="62" viewBox="0 0 97 62" fill="none" xmlns="http://www.w3.org/2000/svg">
<path d="M0.00882139 53.9185C0.349915 51.0106 0.646902 48.0076 1.07915 45.0254C1.29674 43.5328 1.74664 42.0759 2.12301 40.6101C2.38472 39.5932 2.66406 38.5763 2.99633 37.5833C3.51679 36.0282 4.02255 34.4613 4.65475 32.9509C5.40751 31.161 6.24554 29.4038 7.1218 27.6733C8.7861 24.3819 10.7562 21.2778 12.941 18.3134C15.6168 14.6771 18.5455 11.2667 21.7859 8.13879C24.1794 5.83151 26.6965 3.66696 29.4987 1.88001C30.4573 1.26752 31.46 0.657993 32.5303 0.319038C33.9153 -0.121009 35.3944 -0.27562 36.5411 0.993974C37.2116 1.73432 37.5144 2.66199 37.6203 3.65209C37.782 5.16253 37.4174 6.60457 36.8146 7.9366C35.9148 9.92276 34.9709 11.9059 33.833 13.7553C32.3921 16.0983 30.7984 18.3491 29.1606 20.5582C27.5962 22.6633 25.9025 24.6703 24.2441 26.704C23.8207 27.2214 23.6207 27.7893 23.8472 28.3899C24.6705 30.5514 23.7913 32.3146 22.6239 34.0153C22.2093 34.6189 21.7212 35.166 21.286 35.7547C21.0331 36.0996 20.7685 36.4534 20.6156 36.8459C20.5274 37.0719 20.5568 37.4703 20.7038 37.6338C20.8685 37.8152 21.2595 37.943 21.4918 37.8776C22.9033 37.4733 24.3059 37.0362 25.6908 36.5515C26.4318 36.2899 26.9052 35.6655 27.3463 35.0262C28.2696 33.6823 29.2664 32.4097 30.6573 31.5118C31.5335 30.9439 32.4862 30.8309 33.4801 31.0093C34.1505 31.1312 34.6063 31.5564 34.8621 32.1986C34.8857 32.2581 34.9062 32.3176 34.9268 32.38C35.3208 33.4385 36.006 33.5574 36.7381 32.6773C36.8969 32.4841 37.0057 32.2462 37.1263 32.0232C37.3703 31.5772 37.5762 31.1045 37.8585 30.6852C38.3172 30.0014 38.9611 29.6535 39.8021 29.7427C40.6196 29.8289 41.2782 30.4771 41.2371 31.3007C41.2077 31.8597 41.0518 32.4276 40.8577 32.9568C40.6637 33.492 40.349 33.9856 40.0962 34.5C39.905 34.8895 39.7992 35.2909 40.1256 35.6625C40.4402 36.0223 40.8577 36.0401 41.2606 35.8944C41.7781 35.7071 42.278 35.4574 42.7837 35.2344C43.463 34.9341 44.154 34.6546 44.8185 34.3216C45.8624 33.8012 46.9739 33.7002 48.0501 34.0034C48.6852 34.1848 49.2439 34.6843 49.7909 35.1035C50.1378 35.3682 50.3995 35.7488 50.7083 36.0699C51.4846 36.8697 52.3726 36.9975 53.3253 36.4118C53.8222 36.1055 54.2839 35.7369 54.7661 35.4038C55.3013 35.0352 55.8306 34.6605 56.3834 34.3186C57.0891 33.8845 57.6654 33.935 58.2565 34.4435C58.8887 34.9876 59.1709 35.829 58.8681 36.501C58.6946 36.8845 58.4417 37.2562 58.1418 37.5476C56.7186 38.9272 55.0778 39.953 53.1812 40.5387C51.6228 41.0204 50.2466 40.5268 48.9793 39.6408C48.4912 39.2989 48.0472 38.8707 47.6531 38.4188C47.1062 37.7973 46.4652 37.6189 45.733 37.9103C44.9126 38.2344 44.1275 38.6596 43.313 39.0015C42.0192 39.5427 40.7519 40.1641 39.2787 40.0808C38.5377 40.0392 37.8937 39.8519 37.3027 39.397C36.4559 38.7429 36.0648 38.7339 35.2356 39.397C34.0653 40.3306 32.8538 41.1928 31.4894 41.8143C30.2515 42.3762 28.9636 42.5665 27.6639 42.1324C27.2375 41.9897 26.8464 41.6478 26.523 41.3118C25.9319 40.6963 25.2733 40.503 24.4588 40.7141C23.1767 41.0472 21.877 41.3088 20.6068 41.6805C19.0689 42.1294 17.4928 42.2365 15.9138 42.2543C14.9434 42.2662 14.1407 42.5962 13.3526 43.1106C12.5852 43.6131 11.7971 44.0829 10.9885 44.514C10.5768 44.734 10.1123 44.8797 9.65648 44.9838C9.0478 45.1206 8.62144 45.4298 8.40678 46.0274C7.93631 47.3297 7.45996 48.632 6.99536 49.9373C6.39551 51.6172 5.80447 53.3001 5.21638 54.9859C4.86941 55.979 4.55478 56.981 4.20192 57.9711C3.86377 58.9137 3.5756 59.8889 2.84637 60.6263C2.37295 61.105 1.89072 61.1436 1.36732 60.7244C0.714533 60.2041 0.326391 59.5024 0.264642 58.6758C0.147023 57.1326 0.0882139 55.5865 0 53.9364L0.00882139 53.9185ZM12.594 38.7815C12.6116 38.8261 12.6322 38.8677 12.6499 38.9123C13.1439 38.6953 13.6937 38.5555 14.1172 38.2404C14.7758 37.7498 15.3816 37.1759 15.9491 36.5783C16.9665 35.5079 17.9603 34.4137 18.916 33.2869C19.4806 32.6209 19.3718 32.1124 18.6955 31.5743C18.572 31.4761 18.4514 31.3721 18.3367 31.2621C17.5546 30.489 17.5399 29.6565 18.3132 28.8834C18.8866 28.3126 19.5276 27.8011 20.054 27.1887C21.7388 25.2203 23.4208 23.249 25.038 21.2242C27.8021 17.7693 30.4867 14.2548 32.6391 10.3628C33.6712 8.49856 34.4975 6.557 34.8357 4.42812C34.9239 3.86617 34.9033 3.32503 34.3828 2.96526C33.8888 2.62631 33.3654 2.67686 32.8479 2.92067C30.2221 4.1635 27.8697 5.8226 25.7085 7.76415C22.7033 10.4669 19.9569 13.4193 17.4164 16.574C16.7342 17.4214 16.3225 18.352 16.1343 19.4105C16.0432 19.9279 15.9285 20.4423 15.7991 20.9537C15.4433 22.36 15.0728 23.7604 14.7082 25.1638C14.3994 26.3532 14.0995 27.5425 13.779 28.7258C13.5497 29.5703 13.2968 30.4117 13.041 31.2502C12.6822 32.4216 12.3058 33.5901 11.9412 34.7616C11.7001 35.5376 11.4119 36.3048 11.2355 37.0956C10.9826 38.2225 11.4502 38.7637 12.594 38.7815ZM5.07818 38.6804C5.06642 39.6408 5.53983 39.956 6.31317 39.6438C7.04241 39.3464 7.79811 39.1115 8.50088 38.7666C8.82727 38.6061 9.15954 38.2969 9.31245 37.9698C9.62708 37.2978 9.83291 36.5694 10.0623 35.8588C10.3887 34.8449 10.6915 33.8221 11.015 32.8052C11.3649 31.6962 11.7295 30.5931 12.0824 29.487C12.4734 28.259 12.8792 27.034 13.2321 25.7942C13.4144 25.1549 13.5408 24.4919 13.6202 23.8318C13.6879 23.252 13.3762 23.0617 12.8616 23.3501C12.5675 23.5166 12.2853 23.7486 12.0765 24.0132C11.7854 24.3848 11.5619 24.816 11.3178 25.2263C8.86844 29.3532 6.76012 33.6437 5.19874 38.1987C5.13111 38.392 5.1017 38.6001 5.08406 38.6834L5.07818 38.6804ZM2.15536 53.7758C2.23475 54.1356 2.27886 54.6351 2.45823 55.0811C2.64936 55.5568 3.23451 55.5687 3.46681 55.1108C3.82848 54.3883 4.15781 53.642 4.44598 52.8838C4.83118 51.8729 5.17227 50.8441 5.51925 49.8213C5.93974 48.5844 6.38669 47.3565 6.7366 46.0988C6.8454 45.7122 6.80717 45.1384 6.58664 44.8351C6.13675 44.2137 5.54865 43.6785 4.95762 43.182C4.43422 42.7449 3.92258 42.9501 3.73145 43.619C3.63147 43.9699 3.61383 44.3416 3.54914 44.7013C3.32272 45.9709 3.07572 47.2405 2.86695 48.5131C2.72581 49.3783 2.6376 50.2525 2.52292 51.1207C2.41118 51.9591 2.29356 52.7946 2.1583 53.7758H2.15536Z" fill="url(#paint0_linear_612_31727)"/>
<path d="M75.4289 25.7228C75.4436 25.7793 75.4789 25.8388 75.473 25.8923C75.3172 27.1887 75.1643 28.485 74.9879 29.7814C74.9467 30.0965 74.8055 30.3939 74.7497 30.7061C74.1939 33.7804 73.2059 36.724 72.0444 39.6081C71.0594 42.061 70.0302 44.4991 68.9364 46.9075C68.3542 48.1949 67.6602 49.4437 66.8957 50.6271C66.3752 51.4299 65.5431 51.9086 64.5374 51.9591C64.1287 51.9799 63.7994 51.8372 63.5553 51.4923C62.6702 50.2287 62.2145 48.8193 62.2409 47.2732C62.2703 45.5338 62.2527 43.7915 62.6614 42.0789C62.8232 41.398 62.8496 40.6844 62.9937 40.0006C63.2819 38.6269 63.5788 37.2562 63.9317 35.8974C64.264 34.6189 64.6433 33.3493 65.055 32.0946C65.646 30.2928 66.2341 28.488 66.9251 26.7248C67.6396 24.9022 68.41 23.0944 69.2745 21.3402C70.142 19.586 71.1123 17.8793 72.1121 16.1964C73.6882 13.5442 75.5495 11.1032 77.7195 8.91482C79.5603 7.05651 81.6157 5.48067 84.0621 4.54705C85.7793 3.89293 87.5789 3.40234 89.4432 3.74427C90.8281 3.997 92.169 4.4757 93.3687 5.23091C94.3831 5.87017 95.3417 6.61052 96.3062 7.33005C96.7737 7.6809 97.0207 8.17149 97.0031 8.78102C96.9737 9.96141 95.7946 10.6453 94.8095 10.0149C94.2361 9.64922 93.7039 9.21512 93.1717 8.78994C91.9602 7.82065 90.6664 6.99407 89.1903 6.5124C87.9553 6.10803 86.7321 6.11398 85.4853 6.61349C83.4799 7.41331 81.6451 8.48369 79.9984 9.88114C77.5902 11.9208 75.5818 14.3232 73.9705 17.0378C72.8325 18.9526 71.7827 20.9239 70.7859 22.916C70.0949 24.2956 69.5392 25.7436 68.9658 27.1797C68.4012 28.601 67.8602 30.0311 67.3691 31.4791C66.9339 32.7606 66.5722 34.0659 66.2017 35.3682C65.8489 36.608 65.4902 37.8509 65.202 39.1086C64.5286 42.0521 63.9317 45.0105 64.2199 48.0641C64.2669 48.5488 64.3346 49.0423 64.8874 49.2267C65.302 49.3664 65.9106 49.0721 66.2253 48.5161C66.7722 47.5468 67.3279 46.5715 67.7749 45.5517C68.807 43.1879 69.7979 40.8033 70.7624 38.4098C71.6004 36.3285 72.4208 34.2353 73.1736 32.1184C73.8146 30.3195 74.3439 28.4791 74.929 26.6594C75.0349 26.3323 75.1613 26.0142 75.279 25.6931C75.326 25.702 75.376 25.7109 75.423 25.7198L75.4289 25.7228Z" fill="url(#paint1_linear_612_31727)"/>
<path d="M81.5657 39.7359C81.5804 40.509 80.9129 41.2553 80.2101 41.2553C79.5279 41.2553 78.8604 40.5447 78.8487 39.8073C78.834 38.9867 79.4868 38.2671 80.2454 38.2671C80.9364 38.2671 81.551 38.951 81.5657 39.7389V39.7359Z" fill="url(#paint2_linear_612_31727)"/>
<defs>
<linearGradient id="paint0_linear_612_31727" x1="71" y1="-12.5" x2="3.5" y2="72" gradientUnits="userSpaceOnUse">
<stop stop-color="#B5B5B5"/>
<stop offset="1" stop-color="#4F4F4F"/>
</linearGradient>
<linearGradient id="paint1_linear_612_31727" x1="71" y1="-12.5" x2="3.5" y2="72" gradientUnits="userSpaceOnUse">
<stop stop-color="#B5B5B5"/>
<stop offset="1" stop-color="#4F4F4F"/>
</linearGradient>
<linearGradient id="paint2_linear_612_31727" x1="71" y1="-12.5" x2="3.5" y2="72" gradientUnits="userSpaceOnUse">
<stop stop-color="#B5B5B5"/>
<stop offset="1" stop-color="#4F4F4F"/>
</linearGradient>
</defs>
</svg>
