<svg width="27" height="28" viewBox="0 0 27 28" fill="none" xmlns="http://www.w3.org/2000/svg">
<path fill-rule="evenodd" clip-rule="evenodd" d="M13.5 27.5C20.9558 27.5 27 21.4558 27 14C27 6.54416 20.9558 0.5 13.5 0.5C6.04416 0.5 0 6.54416 0 14C0 21.4558 6.04416 27.5 13.5 27.5ZM19.5829 18.2079C18.2613 20.1947 16.03 21.5 13.5 21.5C10.97 21.5 8.7387 20.1947 7.41708 18.2079C7.2095 17.8959 7.4472 17.5 7.82199 17.5H19.178C19.5528 17.5 19.7905 17.8959 19.5829 18.2079ZM12 10.5C12 11.6046 11.1046 12.5 10 12.5C8.89543 12.5 8 11.6046 8 10.5C8 9.39543 8.89543 8.5 10 8.5C11.1046 8.5 12 9.39543 12 10.5ZM17 12.5C18.1046 12.5 19 11.6046 19 10.5C19 9.39543 18.1046 8.5 17 8.5C15.8954 8.5 15 9.39543 15 10.5C15 11.6046 15.8954 12.5 17 12.5Z" fill="#B5B5B5"/>
</svg>
