<svg width="27" height="27" viewBox="0 0 27 27" fill="none" xmlns="http://www.w3.org/2000/svg">
<path fill-rule="evenodd" clip-rule="evenodd" d="M0 11.043C0 6.35182 0 4.00624 1.23988 2.3904C1.55908 1.97441 1.93144 1.60205 2.34743 1.28285C3.96327 0.0429688 6.30885 0.0429688 11 0.0429688H16C20.6912 0.0429688 23.0367 0.0429688 24.6526 1.28285C25.0686 1.60205 25.4409 1.97441 25.7601 2.3904C27 4.00624 27 6.35182 27 11.043C27 15.7341 27 18.0797 25.7601 19.6955C25.4409 20.1115 25.0686 20.4839 24.6526 20.8031C23.0367 22.043 20.6912 22.043 16 22.043H12.7143L6.61401 26.7876C5.95714 27.2985 5.00004 26.8304 5.00007 25.9982L5.00021 21.8189C3.88971 21.6466 3.04966 21.3419 2.34743 20.8031C1.93144 20.4839 1.55908 20.1115 1.23988 19.6955C0 18.0797 0 15.7341 0 11.043ZM8 13.043C9.10457 13.043 10 12.1475 10 11.043C10 9.9384 9.10457 9.04297 8 9.04297C6.89543 9.04297 6 9.9384 6 11.043C6 12.1475 6.89543 13.043 8 13.043ZM16 11.043C16 12.1475 15.1046 13.043 14 13.043C12.8954 13.043 12 12.1475 12 11.043C12 9.9384 12.8954 9.04297 14 9.04297C15.1046 9.04297 16 9.9384 16 11.043ZM20 13.043C21.1046 13.043 22 12.1475 22 11.043C22 9.9384 21.1046 9.04297 20 9.04297C18.8954 9.04297 18 9.9384 18 11.043C18 12.1475 18.8954 13.043 20 13.043Z" fill="#B5B5B5"/>
</svg>
