<svg width="26" height="26" viewBox="0 0 26 26" fill="none" xmlns="http://www.w3.org/2000/svg">
<path fill-rule="evenodd" clip-rule="evenodd" d="M11.5858 0.792818C12.3668 0.011769 13.6332 0.0117693 14.4142 0.792818L25.7071 12.0857C26.0976 12.4762 26.0976 13.1094 25.7071 13.4999C25.3166 13.8904 24.6834 13.8904 24.2929 13.4999L23 12.207V23.7928C23 24.8974 22.1046 25.7928 21 25.7928H16V25.207V23.7928V18.207C16 17.6547 15.5523 17.207 15 17.207H11C10.4477 17.207 10 17.6547 10 18.207V23.7928V25.207V25.7928H5C3.89543 25.7928 3 24.8974 3 23.7928V12.207L1.70711 13.4999C1.31658 13.8904 0.683418 13.8904 0.292893 13.4999C-0.0976311 13.1094 -0.0976311 12.4762 0.292893 12.0857L11.5858 0.792818Z" fill="#B5B5B5"/>
</svg>
