<svg width="27" height="28" viewBox="0 0 27 28" fill="none" xmlns="http://www.w3.org/2000/svg">
<path fill-rule="evenodd" clip-rule="evenodd" d="M4 0.5C2.89543 0.5 2 1.39543 2 2.5V25.5C2 26.6046 2.89543 27.5 4 27.5H23C24.1046 27.5 25 26.6046 25 25.5V2.5C25 1.39543 24.1046 0.5 23 0.5H4ZM7 4.5C6.44772 4.5 6 4.94772 6 5.5C6 6.05228 6.44772 6.5 7 6.5H20C20.5523 6.5 21 6.05228 21 5.5C21 4.94772 20.5523 4.5 20 4.5H7ZM6 10.5C6 9.94771 6.44772 9.5 7 9.5H15C15.5523 9.5 16 9.94771 16 10.5C16 11.0523 15.5523 11.5 15 11.5H7C6.44772 11.5 6 11.0523 6 10.5ZM7 14.5C6.44772 14.5 6 14.9477 6 15.5C6 16.0523 6.44772 16.5 7 16.5H15C15.5523 16.5 16 16.0523 16 15.5C16 14.9477 15.5523 14.5 15 14.5H7Z" fill="#B5B5B5"/>
</svg>
