<svg width="27" height="26" viewBox="0 0 27 26" fill="none" xmlns="http://www.w3.org/2000/svg">
<path fill-rule="evenodd" clip-rule="evenodd" d="M1.85938 2.43164C1.85938 1.32707 2.75481 0.431641 3.85938 0.431641H24.9973C26.1019 0.431641 26.9973 1.32707 26.9973 2.43164V23.5696C26.9973 24.6741 26.1019 25.5696 24.9973 25.5696H3.85937C2.7548 25.5696 1.85938 24.6741 1.85938 23.5696V2.43164ZM14.4687 7.75185C11.6509 7.75264 9.36678 10.0372 9.36678 12.8552C9.36678 15.6738 11.6516 17.9586 14.4702 17.9586C17.2887 17.9586 19.5736 15.6738 19.5736 12.8552C19.5736 10.0429 17.2987 7.76183 14.4886 7.75188L14.4803 7.75192L14.4687 7.75185ZM7.43665 13.8554H5.57368C5.0214 13.8554 4.57368 13.4077 4.57368 12.8554C4.57368 12.3031 5.0214 11.8554 5.57368 11.8554H7.4366C7.60451 10.6635 8.06825 9.56652 8.75117 8.64124L7.54629 7.44648C7.15412 7.05761 7.15145 6.42445 7.54032 6.03228C7.92919 5.64011 8.56235 5.63744 8.95452 6.02631L10.1525 7.21423C11.1016 6.48667 12.2397 5.99324 13.4803 5.82027V4.15605C13.4803 3.60376 13.9281 3.15605 14.4803 3.15605C15.0326 3.15605 15.4803 3.60376 15.4803 4.15605V5.82313C16.6803 5.99397 17.7836 6.46466 18.712 7.15692L19.9796 5.87862C20.3685 5.48645 21.0016 5.48378 21.3938 5.87265C21.786 6.26153 21.7886 6.89469 21.3998 7.28686L20.1322 8.56514C20.8463 9.50614 21.3312 10.6306 21.5037 11.8554H23.3598C23.9121 11.8554 24.3598 12.3031 24.3598 12.8554C24.3598 13.4077 23.9121 13.8554 23.3598 13.8554H21.5037C21.3295 15.0912 20.8374 16.2248 20.1127 17.1709L21.394 18.4522C21.7846 18.8427 21.7846 19.4759 21.394 19.8664C21.0035 20.2569 20.3704 20.2569 19.9798 19.8664L18.6862 18.5727C17.7631 19.2545 16.6691 19.7181 15.4803 19.8873V21.7248C15.4803 22.2771 15.0326 22.7248 14.4803 22.7248C13.9281 22.7248 13.4803 22.2771 13.4803 21.7248V19.8902C12.2516 19.7189 11.1235 19.2333 10.18 18.5172L8.81632 19.8694C8.42415 20.2583 7.79099 20.2556 7.40212 19.8634C7.01325 19.4712 7.01592 18.8381 7.40809 18.4492L8.77177 17.097C8.07763 16.166 7.60628 15.0592 7.43665 13.8554ZM13.0618 12.8555C13.0618 12.0766 13.6933 11.4451 14.4723 11.4451C15.2512 11.4451 15.8827 12.0766 15.8827 12.8555C15.8827 13.6345 15.2512 14.266 14.4723 14.266C13.6933 14.266 13.0618 13.6345 13.0618 12.8555ZM14.4723 9.44508C12.5887 9.44508 11.0618 10.972 11.0618 12.8555C11.0618 14.7391 12.5887 16.266 14.4723 16.266C16.3558 16.266 17.8827 14.7391 17.8827 12.8555C17.8827 10.972 16.3558 9.44508 14.4723 9.44508Z" fill="#B5B5B5"/>
<path d="M0 7.01953C0 6.46725 0.447715 6.01953 1 6.01953H2.72414C3.27642 6.01953 3.72414 6.46725 3.72414 7.01953V9.6747C3.72414 10.227 3.27642 10.6747 2.72414 10.6747H1C0.447716 10.6747 0 10.227 0 9.6747V7.01953Z" fill="#B5B5B5"/>
<rect y="15.3281" width="3.72414" height="4.65517" rx="1" fill="#B5B5B5"/>
</svg>
