<svg width="177" height="107" viewBox="0 0 177 107" fill="none" xmlns="http://www.w3.org/2000/svg">
<path d="M66.7096 79.8H29.5096L21.9096 103.4C21.8246 103.828 21.5826 104.209 21.2311 104.468C20.8795 104.728 20.4438 104.846 20.0096 104.8H1.20956C0.109556 104.8 -0.190445 104.2 0.109555 103L32.3096 10.7C32.6096 9.7 32.9096 8.8 33.3096 7.6C33.712 5.45681 33.9129 3.28064 33.9096 1.1C33.8796 0.849551 33.9454 0.597034 34.0937 0.393044C34.2421 0.189053 34.4621 0.0486609 34.7096 0H60.6096C61.3096 0 61.8096 0.299999 61.9096 0.799999L98.4096 103.3C98.7096 104.4 98.4096 104.9 97.4096 104.9H76.5096C76.1561 104.934 75.8019 104.842 75.5093 104.641C75.2167 104.44 75.0043 104.142 74.9096 103.8L66.7096 79.8ZM35.3096 59.9H60.7096C60.1096 57.8 59.3096 55.3 58.4096 52.7C57.5096 50.1 56.6096 47.1 55.7096 44.1C54.8096 41.1 53.8096 38 52.8096 34.9C51.8096 31.8 50.9096 28.9 50.1096 26C49.3096 23.1 48.6096 20.6 47.9096 18.2H47.7096C46.8108 22.5584 45.6758 26.8648 44.3096 31.1C42.8096 35.9 41.3096 40.9 39.7096 45.9C38.4096 51 36.8096 55.7 35.3096 59.9Z" fill="#9999FF"/>
<path d="M157.71 70.6001H126.01C126.388 73.7559 127.445 76.7922 129.11 79.5001C130.877 82.1954 133.423 84.2883 136.41 85.5001C140.452 87.2287 144.814 88.0808 149.21 88.0001C152.702 87.9361 156.181 87.568 159.61 86.9001C162.659 86.5008 165.648 85.7284 168.51 84.6001C169.01 84.2001 169.31 84.4001 169.31 85.4001V100.7C169.292 101.107 169.225 101.51 169.11 101.9C168.929 102.181 168.69 102.419 168.41 102.6C165.211 104.005 161.853 105.012 158.41 105.6C153.732 106.5 148.972 106.902 144.21 106.8C136.61 106.8 130.21 105.6 125.01 103.3C120.116 101.176 115.798 97.9202 112.41 93.8001C109.243 89.9476 106.896 85.4902 105.51 80.7001C102.579 70.7236 102.719 60.0963 105.91 50.2001C107.504 45.1932 110.051 40.5413 113.41 36.5001C116.717 32.504 120.843 29.2643 125.51 27.0001C130.21 24.7001 135.81 23.9001 142.21 23.9001C147.542 23.7764 152.835 24.835 157.71 27.0001C161.806 28.7761 165.41 31.5217 168.21 35.0001C170.868 38.4156 172.899 42.2753 174.21 46.4001C175.481 50.3414 176.122 54.4588 176.11 58.6001C176.11 61.0001 176.01 63.1001 175.91 65.0001C175.81 66.9001 175.61 68.3001 175.51 69.2001C175.465 69.5465 175.301 69.8664 175.045 70.104C174.789 70.3416 174.458 70.4818 174.11 70.5001C173.51 70.5001 172.41 70.6001 170.81 70.7001C168.884 70.9187 166.947 71.0189 165.01 71.0001C162.71 71.0001 160.31 70.6001 157.71 70.6001ZM126.01 56.0001H147.11C149.71 56.0001 151.61 56.0001 152.81 55.9001C153.631 55.8317 154.423 55.5565 155.11 55.1001V54.1001C155.114 52.8422 154.911 51.5922 154.51 50.4001C153.634 47.6638 151.893 45.2865 149.547 43.6269C147.202 41.9674 144.381 41.1156 141.51 41.2001C138.796 41.0479 136.096 41.6845 133.736 43.0332C131.376 44.3818 129.456 46.3847 128.21 48.8001C127.043 51.0457 126.297 53.4859 126.01 56.0001V56.0001Z" fill="#9999FF"/>
</svg>
