<?xml version="1.0" encoding="UTF-8"?>
<svg id="Icons_Black" data-name="Icons Black" xmlns="http://www.w3.org/2000/svg" viewBox="0 0 475.55 475.55">
  <defs>
    <style>
      .cls-1 {
        fill: #f2f2f2;
        stroke-width: 0px;
      }
    </style>
  </defs>
  <path class="cls-1" d="m385.51,34c30.9,0,56.04,25.14,56.04,56.04v295.47c0,30.9-25.14,56.04-56.04,56.04H90.04c-30.9,0-56.04-25.14-56.04-56.04V90.04c0-30.9,25.14-56.04,56.04-56.04h295.47m0-34H90.04C40.31,0,0,40.31,0,90.04v295.47c0,49.73,40.31,90.04,90.04,90.04h295.47c49.73,0,90.04-40.31,90.04-90.04V90.04c0-49.73-40.31-90.04-90.04-90.04h0Z"/>
  <g>
    <path class="cls-1" d="m163.04,280.3l-16.25,48.74c-.59,1.77-1.48,2.36-3.25,2.36h-29.54c-1.77,0-2.36-.89-2.07-2.95l60.85-173.1c1.18-2.95,2.07-5.91,2.66-15.95,0-1.18.59-2.07,1.77-2.07h41.06c1.48,0,1.77.29,2.07,1.77l68.24,189.64c.29,1.77,0,2.66-1.77,2.66h-33.08c-1.48,0-2.36-.59-2.95-1.77l-17.13-49.33h-70.6Zm61.15-32.2c-6.2-19.5-20.09-60.56-25.99-81.23h-.3c-4.73,19.79-16.54,54.35-25.4,81.23h51.69Z"/>
    <path class="cls-1" d="m308.07,145.6c0-12.11,8.57-20.38,20.38-20.38,12.7,0,20.09,8.57,20.09,20.38s-7.98,20.38-20.38,20.38-20.09-8.27-20.09-20.38Zm2.07,42.24c0-1.48.89-2.07,2.36-2.07h31.31c1.77,0,2.36.3,2.36,2.07v141.2c0,1.77-.59,2.36-2.66,2.36h-30.43c-2.07,0-2.95-.89-2.95-2.66v-140.9Z"/>
  </g>
</svg>