<svg width="73" height="61" viewBox="0 0 73 61" fill="none" xmlns="http://www.w3.org/2000/svg">
<path d="M62.1767 19.888L51.5365 13.7403C50.4068 13.0835 48.9355 13.4776 48.2525 14.6336L46.1507 18.2854C45.6252 19.2049 45.7829 20.3084 46.4397 21.0702L41.6844 22.3576C40.1869 22.7517 39.0835 24.0653 38.9521 25.589L37.4809 43.4804C37.3758 44.9253 38.0852 46.2652 39.32 47.0008C39.8979 47.3424 40.5285 47.5 41.1853 47.5C41.9209 47.5 42.6565 47.2898 43.287 46.8432L58.052 36.6496C59.313 35.7826 59.891 34.18 59.4969 32.6825L58.2621 27.9798C58.446 28.0324 58.63 28.0586 58.8139 28.0586C59.0241 28.0586 59.2342 28.0324 59.4444 27.9798C60.0749 27.8222 60.6003 27.4281 60.9156 26.8764L63.0174 23.2246C63.6742 22.0686 63.2801 20.5973 62.1241 19.9405L62.1767 19.888ZM56.9485 34.9945L42.2099 45.1881C41.9734 45.3457 41.7107 45.3982 41.448 45.4508L48.5415 33.1817C49.6974 33.3919 50.9322 32.8927 51.5627 31.7893C52.3772 30.3968 51.878 28.6366 50.5119 27.8222C49.1194 27.0077 47.3592 27.5069 46.5448 28.8731C45.9143 29.9502 46.0982 31.2638 46.8601 32.1833L39.714 44.5575C39.5564 44.2685 39.4776 43.9533 39.5038 43.5855L40.9751 25.6941C41.0276 24.9848 41.5531 24.3805 42.2361 24.1966L48.6728 22.4627L52.0357 24.4068L55.9502 26.6662L57.6579 33.1029C57.8418 33.8122 57.5791 34.5478 57.0011 34.9419L56.9485 34.9945ZM61.336 22.1737L59.2342 25.8255C59.1291 26.0094 58.8401 26.0882 58.63 25.9831L57.6053 25.3789L48.9355 20.3609L48.016 19.8355C47.8321 19.7304 47.7796 19.4151 47.8847 19.2575L49.9864 15.6056C50.0653 15.448 50.2229 15.3692 50.3805 15.3692C50.4593 15.3692 50.5119 15.3692 50.5907 15.4217L61.2309 21.5694C61.4148 21.6745 61.5199 21.9372 61.3885 22.1737H61.336ZM36.2724 19.2312C36.2724 19.7829 35.8257 20.2295 35.274 20.2295H31.8061C31.3858 21.4381 30.2823 22.3313 28.9162 22.3313C27.55 22.3313 26.4466 21.4381 26.0263 20.2295H13.6783C13.1266 20.2295 12.68 19.7829 12.68 19.2312C12.68 18.6795 13.1266 18.2329 13.6783 18.2329H26.0263C26.4466 17.0243 27.55 16.1311 28.9162 16.1311C30.2823 16.1311 31.3858 17.0243 31.8061 18.2329H35.274C35.8257 18.2329 36.2724 18.6795 36.2724 19.2312ZM33.724 30.0028C33.724 30.5545 33.2773 31.0011 32.7256 31.0011H21.7176C21.3235 32.2359 20.1938 33.1554 18.8014 33.1554C17.409 33.1554 16.3056 32.2359 15.8852 31.0011H13.6521C13.1004 31.0011 12.6537 30.5545 12.6537 30.0028C12.6537 29.451 13.1004 29.0044 13.6521 29.0044H15.8852C16.3056 27.7959 17.4353 26.9289 18.7751 26.9289C20.115 26.9289 21.2447 27.7959 21.6651 29.0044H32.6994C33.2511 29.0044 33.6977 29.451 33.6977 30.0028H33.724ZM31.123 40.7743C31.123 41.326 30.6764 41.7727 30.1247 41.7727H26.9721C26.5517 42.9812 25.4483 43.8744 24.0821 43.8744C22.716 43.8744 21.6125 42.9812 21.1922 41.7727H13.7046C13.1529 41.7727 12.7063 41.326 12.7063 40.7743C12.7063 40.2226 13.1529 39.776 13.7046 39.776H21.1922C21.6125 38.5675 22.716 37.6742 24.0821 37.6742C25.4483 37.6742 26.5517 38.5675 26.9721 39.776H30.1247C30.6764 39.776 31.123 40.2226 31.123 40.7743ZM71.8448 7.77655C72.4754 7.77655 72.9745 7.27738 72.9745 6.64685V1.1297C72.9745 0.49917 72.4754 0 71.8448 0H66.2751C65.6446 0 65.1454 0.49917 65.1454 1.1297V2.91621H8.4502V1.1297C8.4502 0.49917 7.95102 0 7.32049 0H1.7508C1.12026 0 0.621094 0.49917 0.621094 1.1297V6.69939C0.621094 7.32992 1.12026 7.82909 1.7508 7.82909H3.5373V53.1485H1.7508C1.12026 53.1485 0.621094 53.6477 0.621094 54.2782V59.8479C0.621094 60.4784 1.12026 60.9776 1.7508 60.9776H7.32049C7.95102 60.9776 8.4502 60.4784 8.4502 59.8479V58.0614H65.1454V59.8479C65.1454 60.4784 65.6446 60.9776 66.2751 60.9776H71.8448C72.4754 60.9776 72.9745 60.4784 72.9745 59.8479V54.2782C72.9745 53.6477 72.4754 53.1485 71.8448 53.1485H70.0583V7.80282H71.8448V7.77655ZM68.0879 53.096H66.3014C65.6709 53.096 65.1717 53.5951 65.1717 54.2257V56.0122H8.47647V54.2257C8.47647 53.5951 7.9773 53.096 7.34677 53.096H5.56027V7.80282H7.34677C7.9773 7.80282 8.47647 7.30365 8.47647 6.67312V4.88661H65.1717V6.67312C65.1717 7.30365 65.6709 7.80282 66.3014 7.80282H68.0879V53.1222V53.096Z" fill="url(#paint0_linear_587_35615)"/>
<defs>
<linearGradient id="paint0_linear_587_35615" x1="8.89867" y1="67.8803" x2="59.0631" y2="-10.7146" gradientUnits="userSpaceOnUse">
<stop stop-color="#255983"/>
<stop offset="1" stop-color="#76C2FF"/>
</linearGradient>
</defs>
</svg>
