<svg width="20" height="15" viewBox="0 0 20 15" fill="none" xmlns="http://www.w3.org/2000/svg">
<g clip-path="url(#clip0_660_28873)">
<path d="M19.9218 12.9414C19.9734 12.7723 20.0015 12.5931 20.0015 12.4072V2.0657C20.0015 1.85517 19.9656 1.65305 19.8994 1.46436L13.7852 6.65696L19.9218 12.9414Z" fill="#B5B5B5"/>
<path d="M9.817 7.94965C9.97353 8.08179 10.2002 8.08179 10.3556 7.94965L19.1213 0.505085C18.843 0.334872 18.5154 0.236328 18.1647 0.236328H1.83113C1.51471 0.236328 1.21679 0.316395 0.957031 0.457493L9.817 7.94965Z" fill="#B5B5B5"/>
<path d="M0.135211 1.37598C0.0482496 1.5893 0 1.82223 0 2.06635V12.4073C0 12.5955 0.0286131 12.7763 0.081351 12.9471L6.29488 6.58426L0.135211 1.37598Z" fill="#B5B5B5"/>
<path d="M12.8433 7.45686L11.1597 8.88687C10.85 9.15003 10.4701 9.28161 10.0898 9.28161C9.70937 9.28161 9.33179 9.15115 9.02265 8.88911L7.24022 7.38184L0.835938 13.9406C1.12319 14.1276 1.46655 14.2363 1.83515 14.2363H18.1687C18.539 14.2363 18.8835 14.1265 19.1719 13.9378L12.8433 7.45686Z" fill="#B5B5B5"/>
</g>
<defs>
<clipPath id="clip0_660_28873">
<rect width="20" height="14" fill="white" transform="translate(0 0.236328)"/>
</clipPath>
</defs>
</svg>
