<?xml version="1.0" encoding="UTF-8"?>
<svg id="Icons_Black" data-name="Icons Black" xmlns="http://www.w3.org/2000/svg" viewBox="0 0 542.23 250.04">
  <defs>
    <style>
      .cls-1 {
        fill: #f2f2f2;
        stroke-width: 0px;
      }
    </style>
  </defs>
  <path class="cls-1" d="m447.93,226.91c.92-3.02,1.42-6.22,1.42-9.54V32.67c0-3.76-.64-7.37-1.82-10.74l-108.98,92.74,109.38,112.24Z"/>
  <path class="cls-1" d="m267.89,137.76c2.79,2.36,6.83,2.36,9.6,0L433.73,4.8c-4.96-3.04-10.8-4.8-17.05-4.8H125.55c-5.64,0-10.95,1.43-15.58,3.95l157.92,133.81Z"/>
  <path class="cls-1" d="m95.29,20.35c-1.55,3.81-2.41,7.97-2.41,12.33v184.69c0,3.36.51,6.59,1.45,9.64l110.75-113.64L95.29,20.35Z"/>
  <path class="cls-1" d="m321.76,128.96l-30.01,25.54c-5.52,4.7-12.29,7.05-19.07,7.05s-13.51-2.33-19.02-7.01l-31.77-26.92-114.16,117.14c5.12,3.34,11.24,5.28,17.81,5.28h291.13c6.6,0,12.74-1.96,17.88-5.33l-112.8-115.75Z"/>
</svg>