<?xml version="1.0" encoding="UTF-8"?>
<svg id="Icons_Black" data-name="Icons Black" xmlns="http://www.w3.org/2000/svg" viewBox="0 0 356.48 250.04">
  <defs>
    <style>
      .cls-1 {
        fill: #f2f2f2;
        stroke-width: 0px;
      }
    </style>
  </defs>
  <path class="cls-1" d="m355.01,22.96c-2.48-7.98-7.93-14.64-15.06-18.7-4.77-2.71-10.28-4.26-16.15-4.26H32.68c-5.26,0-10.23,1.24-14.63,3.45C10.69,7.14,4.91,13.53,2.02,21.32c-1.3,3.53-2.02,7.36-2.02,11.35v184.7c0,2.93.39,5.78,1.12,8.48,2.19,8.2,7.5,15.12,14.57,19.43,4.95,3.02,10.77,4.76,16.99,4.76h291.12c6.22,0,12.04-1.74,16.99-4.76,7.07-4.31,12.38-11.23,14.57-19.43.73-2.7,1.12-5.55,1.12-8.48V32.67c0-3.38-.51-6.65-1.47-9.71Zm-38.26,1.04l-128.53,109.37c-4.87,4.14-11.94,4.15-16.81.02L42.3,24h274.45ZM24,202.37V39.94l86.7,73.47L24,202.37Zm10.44,23.67l94.62-97.08,26.83,22.74c6.93,5.87,15.42,8.81,23.91,8.81s17.03-2.96,23.97-8.86l25.02-21.29,93.25,95.68H34.44Zm212.67-111.27l85.37-72.64v160.24l-85.37-87.6Z"/>
</svg>