<svg width="355" height="249" viewBox="0 0 355 249" fill="none" xmlns="http://www.w3.org/2000/svg">
<g clip-path="url(#clip0_3_5)">
<path d="M31.68 248.04C25.85 248.04 20.16 246.44 15.21 243.43C8.20999 239.16 3.18999 232.47 1.08999 224.6C0.369995 221.93 0.00999451 219.17 0.00999451 216.38V31.67C0.00999451 27.9 0.669995 24.19 1.96999 20.67C4.75999 13.12 10.28 6.96 17.5 3.34C21.91 1.12 26.69 0 31.68 0H322.8C328.29 0 333.7 1.43 338.46 4.13C345.48 8.13 350.67 14.57 353.06 22.26C354.01 25.27 354.48 28.44 354.48 31.67V216.37C354.48 219.16 354.11 221.93 353.4 224.59C351.3 232.47 346.28 239.16 339.28 243.43C334.33 246.45 328.64 248.04 322.81 248.04H31.68ZM31.07 226.04H323.41L227.85 127.99L202.12 149.89C195.58 155.45 187.3 158.51 178.8 158.51C170.3 158.51 162.06 155.47 155.54 149.94L128 126.6L31.07 226.04ZM244.65 113.7L332.48 203.83V38.97L244.65 113.71V113.7ZM22 203.83L111.16 112.34L22 36.78V203.83ZM169.76 133.15C172.29 135.3 175.5 136.48 178.8 136.48C182.1 136.48 185.33 135.29 187.87 133.13L318.47 22H38.57L169.76 133.15Z" fill="#F2F2F2"/>
</g>
<defs>
<clipPath id="clip0_3_5">
<rect width="354.48" height="248.04" fill="white"/>
</clipPath>
</defs>
</svg>
