<?xml version="1.0" encoding="UTF-8"?>
<svg id="Icons_Black" data-name="Icons Black" xmlns="http://www.w3.org/2000/svg" viewBox="0 0 352.48 246.04">
  <defs>
    <style>
      .cls-1 {
        fill: #f2f2f2;
        stroke-width: 0px;
      }
    </style>
  </defs>
  <path class="cls-1" d="m30.68,246.04c-5.64,0-11.16-1.54-15.95-4.47-6.79-4.14-11.64-10.61-13.68-18.24-.7-2.59-1.05-5.26-1.05-7.96V30.67c0-3.66.64-7.24,1.9-10.66C4.61,12.7,9.95,6.74,16.95,3.24,21.22,1.09,25.84,0,30.68,0h291.12c5.31,0,10.56,1.38,15.16,4,6.8,3.87,11.82,10.11,14.14,17.55.92,2.92,1.38,5.99,1.38,9.12v184.7c0,2.7-.35,5.38-1.05,7.96-2.04,7.63-6.9,14.11-13.68,18.24-4.79,2.92-10.3,4.47-15.95,4.47H30.68Zm-2.98-20h297.08l-97.86-100.41-26.44,22.5c-6.36,5.41-14.41,8.38-22.67,8.38s-16.27-2.96-22.62-8.34l-28.25-23.95L27.7,226.04Zm214.49-113.41l90.3,92.65V35.8l-90.3,76.83ZM20,205.29l91.63-94.02L20,33.62v171.66Zm148.12-72.37c2.71,2.3,6.15,3.56,9.68,3.56s7-1.27,9.72-3.59L320.19,20H34.85l133.27,112.92Z"/>
</svg>