<?xml version="1.0" encoding="UTF-8"?>
<svg id="Icons_Black" data-name="Icons Black" xmlns="http://www.w3.org/2000/svg" viewBox="0 0 475.55 475.55">
  <defs>
    <style>
      .cls-1 {
        fill: #f2f2f2;
        stroke-width: 0px;
      }
    </style>
  </defs>
  <path class="cls-1" d="m385.51,34c30.9,0,56.04,25.14,56.04,56.04v295.47c0,30.9-25.14,56.04-56.04,56.04H90.04c-30.9,0-56.04-25.14-56.04-56.04V90.04c0-30.9,25.14-56.04,56.04-56.04h295.47M385.51,0H90.04C40.31,0,0,40.31,0,90.04v295.47c0,49.73,40.31,90.04,90.04,90.04h295.47c49.73,0,90.04-40.31,90.04-90.04V90.04C475.55,40.31,435.24,0,385.51,0h0Z"/>
  <g id="adobe">
    <polygon class="cls-1" points="269.43 130.3 206.17 130.3 116.34 345.24 257.53 345.24 257.53 345.23 257.53 345.23 240.42 302 198.54 302 237.81 209.5 295.01 345.23 295.01 345.23 295.01 345.24 359.21 345.24 269.43 130.3 269.43 130.3"/>
  </g>
</svg>