<?xml version="1.0" encoding="UTF-8"?>
<svg id="Icons_Black" data-name="Icons Black" xmlns="http://www.w3.org/2000/svg" viewBox="0 0 475.55 475.55">
  <defs>
    <style>
      .cls-1 {
        fill: #f2f2f2;
        stroke-width: 0px;
      }
    </style>
  </defs>
  <path class="cls-1" d="m385.51,0H90.04C40.31,0,0,40.31,0,90.04v295.47c0,49.73,40.31,90.04,90.04,90.04h295.47c49.73,0,90.04-40.31,90.04-90.04V90.04c0-49.73-40.31-90.04-90.04-90.04Zm-209.33,328.74c0,2.07-.59,2.66-2.36,2.66h-31.02c-1.77,0-2.36-.89-2.36-2.66v-189.05c0-2.07.89-2.36,2.36-2.36h31.02c1.77,0,2.36.59,2.36,2.36v189.05Zm161.28-5.91c-19.2,8.27-38.11,11.52-55.83,11.52-42.83,0-75.62-24.81-75.62-74.44,0-42.83,31.9-77.1,83.89-77.1,4.14,0,7.68.3,12.7.89v-60.56c0-1.48.59-2.07,1.77-2.07h32.2c1.48,0,1.48.59,1.48,1.77v178.42c0,5.91.59,13.59,1.18,18.91,0,1.48-.3,2.07-1.77,2.66Z"/>
  <path class="cls-1" d="m242.65,258.14c0,32.2,19.2,45.49,42.83,45.49,5.91,0,11.82-.59,17.13-2.36v-86.55c-3.84-1.48-8.57-2.07-13.88-2.07-26.29,0-46.08,16.84-46.08,45.49Z"/>
</svg>