<?xml version="1.0" encoding="UTF-8"?>
<svg id="Icons_Black" data-name="Icons Black" xmlns="http://www.w3.org/2000/svg" viewBox="0 0 249.14 249.16">
  <defs>
    <style>
      .cls-1 {
        fill: #f2f2f2;
        stroke-width: 0px;
      }
    </style>
  </defs>
  <g id="logo">
    <path class="cls-1" d="m249.14,124.56c-.04-4.15-.04-8.1-.04-11.97,0-12.65.06-24.41-.71-39.37-.48-11.04-2.2-21.26-5.81-30.24-3.16-8.5-8.04-15.8-14.35-22.08-5.9-6.18-13.27-10.96-22.05-14.35-9.08-3.55-19.15-5.47-30.24-5.77C165.62.12,147.43-.07,124.57.02c-22.86-.09-41.05.09-51.37.76-11.08.3-21.16,2.22-30.24,5.77-8.79,3.4-16.15,8.17-22.05,14.35-6.31,6.28-11.19,13.58-14.35,22.08-3.62,8.98-5.33,19.2-5.81,30.24-1.01,19.53-.6,33.6-.76,51.34v.03c.04,4.15.04,8.1.04,11.97,0,12.65-.06,24.41.71,39.37.48,11.04,2.2,21.26,5.81,30.24,3.16,8.5,8.04,15.8,14.35,22.08,5.9,6.18,13.27,10.96,22.05,14.35,9.07,3.55,19.15,5.47,30.24,5.77,10.32.67,28.5.85,51.37.76,22.86.09,41.05-.09,51.36-.76,11.08-.3,21.16-2.22,30.24-5.77,8.79-3.4,16.15-8.17,22.05-14.35,6.31-6.28,11.19-13.58,14.35-22.08,3.61-8.98,5.33-19.2,5.81-30.24,1.01-19.53.6-33.6.76-51.34v-.03Zm-23.15,50.21v.19c-.41,9.2-1.82,16.88-4.21,22.83l-.11.28-.11.28c-1.94,5.23-4.94,9.81-9.15,14l-.21.21-.2.21c-3.6,3.77-8.15,6.69-13.91,8.92l-.08.03c-6.6,2.58-14.23,4.01-22.69,4.24h-.42s-.42.04-.42.04c-7.56.49-20.83.74-39.46.74-3.33,0-6.79,0-10.36-.02h-.19c-3.57.01-7.03.02-10.36.02-18.63,0-31.9-.25-39.46-.74l-.42-.03h-.42c-8.45-.24-16.09-1.67-22.69-4.25l-.08-.03c-5.76-2.23-10.31-5.14-13.91-8.92l-.2-.21-.21-.21c-4.21-4.19-7.21-8.77-9.15-14l-.11-.28-.11-.28c-2.39-5.95-3.81-13.62-4.21-22.83v-.19c-.7-13.41-.7-24.27-.69-35.77,0-4.61,0-9.36-.04-14.42.04-5.06.04-9.82.04-14.42,0-11.49,0-22.35.69-35.77v-.19c.41-9.2,1.82-16.88,4.21-22.83l.11-.28.11-.28c1.94-5.23,4.94-9.81,9.15-14.01l.21-.2.2-.21c3.6-3.77,8.15-6.69,13.91-8.92l.08-.03c6.6-2.58,14.24-4.01,22.68-4.24h.42s.42-.04.42-.04c7.56-.49,20.84-.74,39.47-.74,3.33,0,6.79,0,10.35.02h.19c3.57-.01,7.02-.02,10.36-.02,18.63,0,31.91.25,39.47.74l.42.03h.42c8.45.24,16.08,1.67,22.68,4.25l.08.03c5.76,2.23,10.31,5.14,13.91,8.92l.2.21.21.2c4.21,4.19,7.21,8.78,9.15,14.01l.11.28.11.28c2.39,5.95,3.81,13.62,4.21,22.83v.19c.7,13.42.7,24.28.69,35.77,0,4.61,0,9.36.04,14.42-.04,5.06-.04,9.82-.04,14.42,0,11.49,0,22.35-.69,35.77Z"/>
    <path class="cls-1" d="m124.57,60.61c-35.32,0-63.95,28.63-63.95,63.95s28.63,63.95,63.95,63.95,63.95-28.63,63.95-63.95-28.63-63.95-63.95-63.95Zm0,105.48c-22.9,0-41.53-18.63-41.53-41.53s18.63-41.53,41.53-41.53,41.53,18.63,41.53,41.53-18.63,41.53-41.53,41.53Z"/>
    <path class="cls-1" d="m191.07,43.13c-8.26,0-14.95,6.69-14.95,14.95s6.69,14.95,14.95,14.95,14.95-6.69,14.95-14.95-6.69-14.95-14.95-14.95Z"/>
  </g>
</svg>