<svg width="133" height="114" viewBox="0 0 133 114" fill="none" xmlns="http://www.w3.org/2000/svg">
<path d="M66.7096 88.5005H29.5096L21.9096 112C21.8246 112.429 21.5826 112.81 21.2311 113.069C20.8795 113.328 20.4438 113.446 20.0096 113.4H1.20955C0.109554 113.4 -0.190444 112.8 0.109556 111.6L32.3096 18.9005C32.6096 17.9005 32.9096 16.8005 33.3096 15.6005C33.712 13.4573 33.9129 11.2811 33.9096 9.10049C33.8796 8.85004 33.9454 8.59752 34.0937 8.39353C34.2421 8.18954 34.4621 8.04915 34.7096 8.00049H60.6096C61.4096 8.00049 61.8096 8.30049 61.9096 8.80049L98.4096 111.8C98.7096 112.9 98.4096 113.4 97.4096 113.4H76.5096C76.1561 113.435 75.8019 113.343 75.5093 113.142C75.2167 112.941 75.0043 112.643 74.9096 112.3L66.7096 88.5005ZM35.3096 68.2005H60.7096C60.1096 66.1005 59.3096 63.6005 58.4096 61.0005C57.5096 58.4005 56.6096 55.4005 55.7096 52.4005C54.8096 49.4005 53.8096 46.3005 52.8096 43.2005C51.8096 40.1005 50.9096 37.2005 50.1096 34.3005C49.3096 31.4005 48.6096 28.9005 47.9096 26.5005H47.7096C46.8108 30.8589 45.6758 35.1653 44.3096 39.4005C42.8096 44.2005 41.3096 49.2005 39.7096 54.2005C38.3096 59.3005 36.8096 64.0005 35.3096 68.2005V68.2005Z" fill="#FF9A00"/>
<path d="M120.21 25.1004C118.568 25.1363 116.936 24.8454 115.408 24.2445C113.88 23.6436 112.487 22.7448 111.31 21.6004C109.019 19.0953 107.798 15.7934 107.91 12.4004C107.851 10.7472 108.141 9.10018 108.761 7.56666C109.381 6.03314 110.318 4.6476 111.51 3.5004C113.913 1.22855 117.102 -0.0256074 120.41 0.000396435C124.31 0.000396435 127.31 1.2004 129.51 3.5004C131.725 5.92514 132.909 9.1175 132.81 12.4004C132.871 14.09 132.592 15.7746 131.991 17.3548C131.39 18.935 130.478 20.3786 129.31 21.6004C128.131 22.8006 126.709 23.7341 125.139 24.3379C123.57 24.9417 121.888 25.2017 120.21 25.1004V25.1004ZM109.01 111.9V34.9004C109.01 33.9004 109.41 33.5004 110.31 33.5004H130.11C131.01 33.5004 131.41 34.0004 131.41 34.9004V111.9C131.41 113 131.01 113.5 130.11 113.5H110.51C110.299 113.518 110.088 113.487 109.891 113.412C109.695 113.336 109.517 113.216 109.373 113.063C109.229 112.909 109.121 112.724 109.058 112.523C108.995 112.322 108.979 112.109 109.01 111.9V111.9Z" fill="#FF9A00"/>
</svg>
