<svg width="113" height="116" viewBox="0 0 113 116" fill="none" xmlns="http://www.w3.org/2000/svg">
<path d="M22.3 9.90803V112.508C22.3 113.608 21.8 114.108 20.9 114.108H1.3C0.399995 114.108 0 113.608 0 112.508V9.90803C0 9.00803 0.500002 8.60803 1.4 8.60803H20.9C21.0516 8.58413 21.2065 8.59135 21.3552 8.62927C21.5039 8.66719 21.6433 8.735 21.765 8.82857C21.8866 8.92214 21.9879 9.03951 22.0627 9.17352C22.1375 9.30753 22.1842 9.45537 22.2 9.60803C22.2378 9.64754 22.2664 9.69493 22.2837 9.74681C22.301 9.79868 22.3065 9.85374 22.3 9.90803V9.90803Z" fill="#FF3366"/>
<path d="M79.9 115.708C72.4875 115.83 65.1416 114.292 58.4 111.208C52.1277 108.275 46.8709 103.541 43.3 97.6081C39.6 91.5081 37.8 83.9081 37.8 74.8081C37.6986 67.4077 39.599 60.1174 43.3 53.7081C47.0949 47.1941 52.5914 41.8359 59.2 38.2081C66.2 34.3081 74.6 32.4081 84.5 32.4081C85.2013 32.4002 85.9026 32.4336 86.6 32.5081C87.5 32.6081 88.5 32.6081 89.7 32.7081V1.10813C89.7 0.408134 90 0.00813156 90.7 0.00813156H111C111.224 -0.0222009 111.451 0.0329825 111.637 0.162695C111.822 0.292408 111.952 0.48714 112 0.708132V96.1081C112 97.9081 112.1 99.9081 112.2 102.108C112.3 104.308 112.5 106.208 112.6 107.908C112.621 108.246 112.536 108.582 112.357 108.869C112.178 109.156 111.913 109.379 111.6 109.508C106.362 111.709 100.895 113.319 95.3 114.308C90.2182 115.229 85.0646 115.698 79.9 115.708ZM89.7 95.7081V51.7081C88.8096 51.4932 87.9083 51.3263 87 51.2081C85.9 51.1081 84.8 51.0081 83.7 51.0081C79.7802 50.964 75.9063 51.8553 72.4 53.6081C68.9828 55.3108 66.057 57.858 63.9 61.0081C61.7 64.2081 60.6 68.5081 60.6 73.7081C60.5128 77.2179 61.0896 80.7125 62.3 84.0081C63.2671 86.6732 64.8027 89.0959 66.8 91.1081C68.7279 92.948 71.0552 94.317 73.6 95.1081C76.2786 95.9854 79.0814 96.4244 81.9 96.4081C83.4 96.4081 84.8 96.3081 86.1 96.2081C87.322 96.3023 88.5499 96.1318 89.7 95.7081Z" fill="#FF3366"/>
</svg>
