<svg width="44" height="44" viewBox="0 0 44 44" fill="none" xmlns="http://www.w3.org/2000/svg">
<path d="M19.9479 25.8849L19.5 14.5579V10.5H24.2778V14.5579L23.7925 25.8849H19.9479ZM19.612 34.3889V29.4135H24.0165V34.3889H19.612Z" fill="url(#paint0_linear_772_29879)"/>
<path d="M40.5 22C40.5 11.7827 32.2173 3.5 22 3.5C11.7827 3.5 3.5 11.7827 3.5 22C3.5 32.2173 11.7827 40.5 22 40.5V43.5C10.1259 43.5 0.5 33.8741 0.5 22C0.5 10.1259 10.1259 0.5 22 0.5C33.8741 0.5 43.5 10.1259 43.5 22C43.5 33.8741 33.8741 43.5 22 43.5V40.5C32.2173 40.5 40.5 32.2173 40.5 22Z" fill="url(#paint1_linear_772_29879)"/>
<defs>
<linearGradient id="paint0_linear_772_29879" x1="23.7778" y1="11.6111" x2="16.1047" y2="13.2124" gradientUnits="userSpaceOnUse">
<stop stop-color="#5FBCFF"/>
<stop offset="1" stop-color="#147BC6"/>
</linearGradient>
<linearGradient id="paint1_linear_772_29879" x1="39" y1="2.5" x2="4.5" y2="38.5" gradientUnits="userSpaceOnUse">
<stop stop-color="#5FBCFF"/>
<stop offset="1" stop-color="#147BC6"/>
</linearGradient>
</defs>
</svg>
