<svg width="22" height="21" viewBox="0 0 22 21" fill="none" xmlns="http://www.w3.org/2000/svg">
<path d="M21.2379 10.2351C21.2347 9.89405 21.2347 9.56949 21.2347 9.2515C21.2347 8.21206 21.2396 7.24576 21.1763 6.01652C21.1369 5.10937 20.9955 4.26961 20.6989 3.53174C20.4393 2.8333 20.0383 2.23347 19.5198 1.71745C19.035 1.20965 18.4294 0.816885 17.708 0.538334C16.9619 0.246635 16.1344 0.0888714 15.2232 0.0642208C14.3752 0.00998948 12.8806 -0.00562255 11.0022 0.00177263C9.12382 -0.00562255 7.62917 0.0091678 6.78119 0.0642208C5.87076 0.0888714 5.0425 0.246635 4.29641 0.538334C3.57415 0.817707 2.96939 1.20965 2.48459 1.71745C1.96611 2.23347 1.56513 2.8333 1.30547 3.53174C1.00802 4.26961 0.867514 5.10937 0.828073 6.01652C0.745083 7.62127 0.778772 8.77738 0.765625 10.2351V10.2375C0.768912 10.5785 0.768912 10.9031 0.768912 11.2211C0.768912 12.2605 0.763982 13.2268 0.827251 14.4561C0.866692 15.3632 1.00802 16.203 1.30465 16.9408C1.5643 17.6393 1.96529 18.2391 2.48377 18.7551C2.96857 19.2629 3.57415 19.6557 4.29559 19.9342C5.04086 20.2259 5.86912 20.3837 6.78037 20.4084C7.62835 20.4634 9.12218 20.4782 11.0014 20.4708C12.8797 20.4782 14.3744 20.4634 15.2216 20.4084C16.132 20.3837 16.9602 20.2259 17.7063 19.9342C18.4286 19.6549 19.0334 19.2629 19.5182 18.7551C20.0366 18.2391 20.4376 17.6393 20.6973 16.9408C20.9939 16.203 21.1352 15.3632 21.1747 14.4561C21.2577 12.8513 21.224 11.6952 21.2371 10.2375V10.2351H21.2379ZM19.3357 14.3607V14.3764C19.302 15.1323 19.1862 15.7634 18.9898 16.2523L18.9808 16.2753L18.9717 16.2983C18.8123 16.728 18.5658 17.1044 18.2199 17.4486L18.2026 17.4659L18.1862 17.4831C17.8904 17.7929 17.5165 18.0329 17.0432 18.2161L17.0367 18.2186C16.4943 18.4306 15.8674 18.5481 15.1723 18.567H15.1377L15.1032 18.5702C14.482 18.6105 13.3917 18.631 11.8609 18.631C11.5872 18.631 11.3029 18.631 11.0096 18.6294H10.994C10.7006 18.6302 10.4163 18.631 10.1427 18.631C8.61191 18.631 7.52153 18.6105 6.90034 18.5702L6.86583 18.5678H6.83131C6.13699 18.5481 5.50922 18.4306 4.96691 18.2186L4.96033 18.2161C4.48704 18.0329 4.11318 17.7937 3.81737 17.4831L3.80093 17.4659L3.78368 17.4486C3.43775 17.1044 3.19124 16.728 3.03184 16.2983L3.0228 16.2753L3.01376 16.2523C2.81738 15.7634 2.7007 15.1331 2.66783 14.3764V14.3607C2.61031 13.2589 2.61031 12.3665 2.61113 11.4216C2.61113 11.0428 2.61113 10.6525 2.60785 10.2367C2.61113 9.82092 2.61113 9.4298 2.61113 9.05183C2.61113 8.10771 2.61113 7.21536 2.66783 6.11265V6.09704C2.70152 5.34109 2.81738 4.71003 3.01376 4.22113L3.0228 4.19812L3.03184 4.17512C3.19124 3.74538 3.43775 3.36904 3.78368 3.02393L3.80093 3.0075L3.81737 2.99025C4.11318 2.68047 4.48704 2.44054 4.96033 2.2573L4.96691 2.25484C5.50922 2.04284 6.13699 1.92534 6.83049 1.90644H6.865L6.89951 1.90315C7.52071 1.86289 8.61191 1.84235 10.1427 1.84235C10.4163 1.84235 10.7006 1.84235 10.9932 1.84399H11.0088C11.3021 1.84317 11.5856 1.84235 11.86 1.84235C13.3908 1.84235 14.482 1.86289 15.1032 1.90315L15.1377 1.90562H15.1723C15.8666 1.92534 16.4935 2.04284 17.0358 2.25484L17.0424 2.2573C17.5157 2.44054 17.8896 2.67965 18.1854 2.99025L18.2018 3.0075L18.2191 3.02393C18.565 3.36822 18.8115 3.74538 18.9709 4.17512L18.9799 4.19812L18.989 4.22113C19.1854 4.71003 19.302 5.34027 19.3349 6.09704V6.11265C19.3924 7.21536 19.3924 8.10771 19.3916 9.05183C19.3916 9.43062 19.3916 9.82092 19.3949 10.2367C19.3916 10.6525 19.3916 11.0436 19.3916 11.4216C19.3916 12.3657 19.3916 13.258 19.3349 14.3607H19.3357Z" fill="#B5B5B5"/>
<path d="M11.0008 4.98047C8.09858 4.98047 5.74609 7.33296 5.74609 10.2352C5.74609 13.1373 8.09858 15.4898 11.0008 15.4898C13.903 15.4898 16.2555 13.1373 16.2555 10.2352C16.2555 7.33296 13.903 4.98047 11.0008 4.98047ZM11.0008 13.6476C9.11912 13.6476 7.58831 12.1168 7.58831 10.2352C7.58831 8.35349 9.11912 6.82269 11.0008 6.82269C12.8824 6.82269 14.4132 8.35349 14.4132 10.2352C14.4132 12.1168 12.8824 13.6476 11.0008 13.6476Z" fill="#B5B5B5"/>
<path d="M16.4667 3.54395C15.788 3.54395 15.2383 4.09365 15.2383 4.77237C15.2383 5.45108 15.788 6.00079 16.4667 6.00079C17.1454 6.00079 17.6951 5.45108 17.6951 4.77237C17.6951 4.09365 17.1454 3.54395 16.4667 3.54395Z" fill="#B5B5B5"/>
</svg>
