<svg width="159" height="111" viewBox="0 0 159 111" fill="none" xmlns="http://www.w3.org/2000/svg">
<path d="M83.6842 88.3631L100.936 76.9785C102.288 81.2146 110.849 91.2754 121.664 91.2754C132.479 91.2754 137.5 85.3846 137.5 81.4794C137.5 70.8367 126.457 67.0844 121.153 65.2822C120.288 64.9884 119.576 64.7464 119.089 64.5349C118.839 64.4264 118.462 64.2825 117.977 64.0978C112.078 61.8501 90.3146 53.5577 90.3146 29.5205C90.3146 3.04468 115.935 0 121.728 0C125.519 0 143.744 0.463329 152.82 17.4741L136.083 29.1234C132.414 21.7102 126.318 19.2612 122.565 19.2612C113.296 19.2612 111.364 26.0386 111.364 29.1234C111.364 37.7799 121.436 41.6598 129.939 44.9359C132.164 45.793 134.282 46.6087 136.083 47.4579C145.353 51.8265 159 58.9748 159 81.4794C159 92.7512 149.52 111 125.655 111C93.5976 111 85.1004 91.805 83.6842 88.3631Z" fill="#FFCA28"/>
<path d="M0 90.6239L17.981 79.245C19.39 83.479 24.8648 91.2854 32.8086 91.2854C40.7525 91.2854 44.8183 83.1482 44.8183 79.245V2.50382H66.9323V79.245C67.2901 89.83 61.4038 111 35.4253 111C11.5401 111 1.61024 96.8426 0 90.6239Z" fill="#FFCA28"/>
</svg>
