<svg width="19" height="19" viewBox="0 0 19 19" fill="none" xmlns="http://www.w3.org/2000/svg">
<path d="M4.51288 6.21533H0.769531V18.2364H4.51288V6.21533Z" fill="#B5B5B5"/>
<path d="M18.5195 10.6592V18.2365H14.7762V12.2864C14.796 11.9228 14.7981 11.5874 14.7762 11.2818C14.675 9.81376 14.0701 9.02985 12.7818 9.02985C12.4393 9.04825 12.1245 9.11688 11.8457 9.25059C11.0442 9.63264 10.5312 10.5375 10.4973 12.2864V18.2365H6.75391V6.21544H10.3522L10.3883 7.74151C11.4602 6.44396 12.8461 5.66501 14.7762 5.78812C17.4986 6.23313 18.4431 8.09808 18.5195 10.6592Z" fill="#B5B5B5"/>
<path d="M2.64186 4.55912C3.83557 4.55912 4.80326 3.59143 4.80326 2.39772C4.80326 1.20402 3.83557 0.236328 2.64186 0.236328C1.44816 0.236328 0.480469 1.20402 0.480469 2.39772C0.480469 3.59143 1.44816 4.55912 2.64186 4.55912Z" fill="#B5B5B5"/>
</svg>
