<svg width="145" height="108" viewBox="0 0 145 108" fill="none" xmlns="http://www.w3.org/2000/svg">
<path d="M0 104.6V1.7C0 1 0.3 0.599998 1 0.599998C2.7 0.599998 4.3 0.6 6.6 0.5C8.9 0.4 11.5 0.399999 14.2 0.299999C16.9 0.199999 19.8 0.199998 22.9 0.0999985C26 -1.52737e-06 29 0 32 0C40.2 0 47 0.999999 52.6 3.1C57.62 4.80475 62.1974 7.60587 66 11.3C69.2223 14.5328 71.7119 18.4207 73.3 22.7C74.8138 26.8674 75.592 31.2662 75.6 35.7C75.6 44.3 73.6 51.4 69.6 57C65.5814 62.5923 59.9708 66.8438 53.5 69.2C46.7 71.7 39.2 72.6 31 72.6C28.6 72.6 27 72.6 26 72.5C25 72.4 23.6 72.4 21.7 72.4V104.5C21.7223 104.665 21.7114 104.832 21.6678 104.992C21.6242 105.152 21.5489 105.302 21.4463 105.433C21.3437 105.563 21.2159 105.672 21.0705 105.752C20.9252 105.833 20.7652 105.883 20.6 105.9H1.2C0.400001 105.9 0 105.5 0 104.6ZM21.8 19.9V53.5C23.2 53.6 24.5 53.7 25.7 53.7H31C34.9038 53.7047 38.7843 53.0973 42.5 51.9C45.6879 50.9625 48.536 49.1217 50.7 46.6C52.8 44.1 53.8 40.7 53.8 36.3C53.8941 33.1751 53.0963 30.088 51.5 27.4C49.8326 24.8036 47.3804 22.8068 44.5 21.7C40.7459 20.2297 36.729 19.5488 32.7 19.7C30.1 19.7 27.8 19.7 25.9 19.8C24.5331 19.7106 23.1609 19.7441 21.8 19.9V19.9Z" fill="#31A8FF"/>
<path d="M138 47.4C134.981 45.8098 131.747 44.6646 128.4 44C124.724 43.1675 120.969 42.7317 117.2 42.7C115.176 42.6303 113.153 42.8662 111.2 43.4C109.954 43.6592 108.85 44.372 108.1 45.4C107.595 46.2114 107.318 47.1444 107.3 48.1C107.347 49.0514 107.697 49.9627 108.3 50.7C109.248 51.8117 110.403 52.7287 111.7 53.4C114 54.6 116.4 55.7 118.8 56.7C124.203 58.5189 129.372 60.9692 134.2 64C137.484 66.065 140.2 68.9181 142.1 72.3C143.707 75.4902 144.497 79.0293 144.4 82.6001C144.481 87.3266 143.121 91.9658 140.5 95.9C137.711 99.8919 133.819 102.985 129.3 104.8C124.4 106.9 118.4 108 111.2 108C106.635 108.018 102.079 107.583 97.6 106.7C94.0731 106.091 90.643 105.014 87.4 103.5C87.0514 103.325 86.7615 103.052 86.566 102.714C86.3706 102.377 86.2781 101.99 86.3 101.6V84.2C86.2914 84.0292 86.3231 83.8586 86.3926 83.7023C86.4621 83.5459 86.5674 83.4081 86.7 83.3C86.8409 83.218 87.0045 83.1834 87.1666 83.2014C87.3286 83.2194 87.4806 83.289 87.6 83.4C91.4521 85.671 95.6362 87.3243 100 88.3C103.853 89.3026 107.819 89.8067 111.8 89.8C115.6 89.8 118.3 89.3 120.1 88.4C120.903 88.0292 121.583 87.4371 122.062 86.6932C122.54 85.9493 122.796 85.0844 122.8 84.2C122.8 82.8 122 81.5 120.4 80.2C118.8 78.9 115.5 77.4 110.6 75.5C105.573 73.7288 100.8 71.3083 96.4 68.3C93.2665 66.0667 90.6702 63.163 88.8 59.8C87.2041 56.6417 86.414 53.1377 86.5 49.6C86.5148 45.333 87.6901 41.1503 89.9 37.5C92.4404 33.4856 96.0866 30.2908 100.4 28.3C105.1 25.9 111 24.8 118.1 24.8C122.25 24.8012 126.394 25.102 130.5 25.7C133.453 26.0996 136.342 26.8724 139.1 28C139.539 28.1558 139.899 28.4795 140.1 28.9C140.215 29.2904 140.282 29.6934 140.3 30.1V46.4C140.302 46.5944 140.257 46.7863 140.17 46.9601C140.083 47.134 139.956 47.2847 139.8 47.4C139.218 47.6092 138.582 47.6092 138 47.4Z" fill="#31A8FF"/>
</svg>
