<svg width="138" height="106" viewBox="0 0 138 106" fill="none" xmlns="http://www.w3.org/2000/svg">
<path d="M0 104.6V1.7C0 1 0.3 0.599998 1 0.599998C2.7 0.599998 4.3 0.6 6.6 0.5C8.9 0.4 11.5 0.399999 14.2 0.299999C16.9 0.199999 19.8 0.199998 22.9 0.0999985C26 -1.52737e-06 29 0 32 0C40.2 0 47 0.999999 52.6 3.1C57.62 4.80475 62.1974 7.60587 66 11.3C69.2223 14.5328 71.7119 18.4207 73.3 22.7C74.8138 26.8674 75.592 31.2662 75.6 35.7C75.6 44.3 73.6 51.4 69.6 57C65.5814 62.5923 59.9708 66.8438 53.5 69.2C46.7 71.7 39.2 72.6 31 72.6C28.6 72.6 27 72.6 26 72.5C25 72.4 23.6 72.4 21.7 72.4V104.5C21.7223 104.665 21.7114 104.832 21.6678 104.992C21.6242 105.152 21.5489 105.302 21.4463 105.433C21.3437 105.563 21.2159 105.672 21.0705 105.752C20.9252 105.833 20.7652 105.883 20.6 105.9H1.2C0.400001 105.9 0 105.5 0 104.6ZM21.8 19.9V53.5C23.2 53.6 24.5 53.7 25.7 53.7H31C34.9038 53.7047 38.7843 53.0973 42.5 51.9C45.6879 50.9625 48.536 49.1217 50.7 46.6C52.8 44.1 53.8 40.7 53.8 36.3C53.8941 33.1751 53.0963 30.088 51.5 27.4C49.8326 24.8036 47.3804 22.8068 44.5 21.7C40.7459 20.2297 36.729 19.5488 32.7 19.7C30.1 19.7 27.8 19.7 25.9 19.8C24.5331 19.7106 23.1609 19.7441 21.8 19.9V19.9Z" fill="#9999FF"/>
<path d="M89.6 25.7H107.1C107.574 25.7115 108.032 25.8723 108.409 26.1596C108.786 26.447 109.063 26.8461 109.2 27.3C109.505 28.1046 109.707 28.9446 109.8 29.8C110 30.8 110.2 31.9 110.3 32.9C110.4 33.9 110.5 35.2 110.5 36.5C113.503 32.9947 117.131 30.0785 121.2 27.9C125.848 25.3179 131.083 23.9749 136.4 24C136.565 23.9777 136.732 23.9887 136.892 24.0322C137.052 24.0758 137.202 24.1511 137.333 24.2537C137.463 24.3563 137.572 24.4841 137.652 24.6295C137.732 24.7749 137.783 24.9349 137.8 25.1V45C137.8 45.8 137.3 46.1 136.2 46.1C132.572 45.9813 128.944 46.3172 125.4 47.1C122.511 47.6964 119.695 48.6016 117 49.8C115.065 50.6724 113.33 51.9316 111.9 53.5V104.5C111.9 105.5 111.5 105.9 110.6 105.9H90.9C90.7155 105.931 90.5267 105.924 90.3449 105.88C90.1631 105.836 89.9922 105.755 89.8426 105.643C89.6929 105.531 89.5677 105.39 89.4744 105.227C89.3811 105.065 89.3218 104.886 89.3 104.7V48.9C89.3 46.5 89.3 44 89.2 41.4C89.1 38.8 89.1 36.2 89 33.6C89 31.3 88.8 29.1 88.6 26.8C88.5734 26.6818 88.5705 26.5595 88.5914 26.4402C88.6122 26.3209 88.6564 26.2068 88.7215 26.1046C88.7865 26.0024 88.8711 25.9141 88.9704 25.8446C89.0696 25.7752 89.1817 25.7261 89.3 25.7C89.3 25.6 89.5 25.6 89.6 25.7V25.7Z" fill="#9999FF"/>
</svg>
