<?xml version="1.0" encoding="UTF-8"?>
<svg id="Icons_Black" data-name="Icons Black" xmlns="http://www.w3.org/2000/svg" viewBox="0 0 475.55 475.55">
  <defs>
    <style>
      .cls-1 {
        fill: #f2f2f2;
        stroke-width: 0px;
      }
    </style>
  </defs>
  <path class="cls-1" d="m385.51,34c30.9,0,56.04,25.14,56.04,56.04v295.47c0,30.9-25.14,56.04-56.04,56.04H90.04c-30.9,0-56.04-25.14-56.04-56.04V90.04c0-30.9,25.14-56.04,56.04-56.04h295.47m0-34H90.04C40.31,0,0,40.31,0,90.04v295.47c0,49.73,40.31,90.04,90.04,90.04h295.47c49.73,0,90.04-40.31,90.04-90.04V90.04c0-49.73-40.31-90.04-90.04-90.04h0Z"/>
  <g>
    <path class="cls-1" d="m113.86,139.98c0-1.48.59-2.36,2.07-2.36,11.23-.29,33.08-.89,54.65-.89,57.31,0,78.57,31.9,78.57,64.4,0,46.97-36.33,67.35-80.94,67.35h-18.61v60.56c0,1.48-.59,2.36-2.36,2.36h-31.02c-1.48,0-2.36-.59-2.36-2.07v-189.35Zm35.74,96.89c5.02.3,8.86.3,18.61.3,24.81,0,45.79-8.27,45.79-35.15,0-21.56-15.36-34.27-42.54-34.27-10.34,0-18.61.3-21.86.59v68.53Z"/>
    <path class="cls-1" d="m328.31,211.47c-15.66,0-20.97,6.5-20.97,12.7s4.43,10.93,23.34,18.31c33.68,12.41,45.2,25.7,45.2,46.67,0,27.77-21.86,45.2-58.19,45.2-17.43,0-32.79-3.25-41.65-8.27-1.48-.89-2.07-1.48-2.07-3.25v-28.06c0-1.48,1.18-2.07,2.36-1.48,12.7,8.27,28.95,11.82,42.24,11.82,15.36,0,22.75-5.32,22.75-13s-5.61-12.11-23.93-19.5c-32.2-11.82-43.72-25.11-43.72-46.38,0-22.45,18.31-43.42,55.24-43.42,17.13,0,30.13,2.36,37.22,5.91,1.48.89,1.77,2.07,1.77,3.54v25.99c0,1.48-.89,2.36-2.66,1.77-9.16-5.02-23.93-8.57-36.92-8.57Z"/>
  </g>
</svg>