<svg width="80" height="63" viewBox="0 0 80 63" fill="none" xmlns="http://www.w3.org/2000/svg">
<path d="M23.8261 30.5522C26.2168 29.1335 27.8457 26.5325 27.8457 23.5638C27.8457 19.045 24.1676 15.3931 19.6751 15.3931C15.1825 15.3931 11.5044 19.0712 11.5044 23.5638C11.5044 26.5325 13.1333 29.1335 15.5241 30.5522C10.9264 32.2599 7.61615 36.6473 7.61615 41.8229V43.6882C7.61615 45.0806 8.74585 46.2104 10.1383 46.2104H29.2381C30.6305 46.2104 31.7602 45.0806 31.7602 43.6882V41.8229C31.7602 36.6473 28.4499 32.2336 23.8523 30.5522H23.8261ZM13.4486 23.5638C13.4486 20.1484 16.2334 17.3636 19.6488 17.3636C23.0642 17.3636 25.849 20.1484 25.849 23.5638C25.849 26.9792 23.0642 29.764 19.6488 29.764C16.2334 29.764 13.4486 26.9792 13.4486 23.5638ZM29.7635 43.7145C29.7635 44.0298 29.5271 44.2662 29.2118 44.2662H10.112C9.79675 44.2662 9.5603 44.0298 9.5603 43.7145V41.8492C9.5603 36.2795 14.0791 31.7607 19.6488 31.7607C25.2185 31.7607 29.7635 36.2795 29.7635 41.8492V43.7145ZM38.88 26.191H48.732C49.7829 26.191 50.6236 25.3503 50.6236 24.2994V17.2847C50.6236 16.2339 49.7829 15.3931 48.732 15.3931H38.88C37.8291 15.3931 36.9884 16.2339 36.9884 17.2847V24.2994C36.9884 25.3503 37.8291 26.191 38.88 26.191ZM48.6532 17.2847V24.2206L38.9588 24.2994L38.88 17.3636L48.6532 17.2847ZM55.2738 26.191H65.1521C66.203 26.191 67.0437 25.3503 67.0437 24.2994V17.2847C67.0437 16.2339 66.203 15.3931 65.1521 15.3931H55.2738C54.2229 15.3931 53.3822 16.2339 53.3822 17.2847V24.2994C53.3822 25.3503 54.2229 26.191 55.2738 26.191ZM65.0733 17.2847V24.2206L55.3526 24.2994L55.2738 17.3636L65.0733 17.2847ZM36.9884 31.2878C36.9884 30.7361 37.435 30.2894 37.9867 30.2894H66.0716C66.6233 30.2894 67.07 30.7361 67.07 31.2878C67.07 31.8395 66.6233 32.2861 66.0716 32.2861H37.9867C37.435 32.2861 36.9884 31.8395 36.9884 31.2878ZM36.9884 36.9363C36.9884 36.3846 37.435 35.938 37.9867 35.938H66.0716C66.6233 35.938 67.07 36.3846 67.07 36.9363C67.07 37.488 66.6233 37.9346 66.0716 37.9346H37.9867C37.435 37.9346 36.9884 37.488 36.9884 36.9363ZM52.9618 42.795C52.9618 43.3467 52.5152 43.7933 51.9635 43.7933H37.9867C37.435 43.7933 36.9884 43.3467 36.9884 42.795C36.9884 42.2433 37.435 41.7966 37.9867 41.7966H51.9635C52.5152 41.7966 52.9618 42.2433 52.9618 42.795ZM7.27462 5.67246C7.27462 5.12075 7.72124 4.67412 8.27295 4.67412C8.82466 4.67412 9.2713 5.12075 9.2713 5.67246C9.2713 6.22418 8.82466 6.6708 8.27295 6.6708C7.72124 6.6708 7.27462 6.22418 7.27462 5.67246ZM10.4798 5.67246C10.4798 5.12075 10.9264 4.67412 11.4782 4.67412C12.0299 4.67412 12.4765 5.12075 12.4765 5.67246C12.4765 6.22418 12.0299 6.6708 11.4782 6.6708C10.9264 6.6708 10.4798 6.22418 10.4798 5.67246ZM13.6325 5.67246C13.6325 5.12075 14.0791 4.67412 14.6308 4.67412C15.1825 4.67412 15.6292 5.12075 15.6292 5.67246C15.6292 6.22418 15.1825 6.6708 14.6308 6.6708C14.0791 6.6708 13.6325 6.22418 13.6325 5.67246ZM78.4458 48.9952L74.6101 47.4714V6.9598C74.6101 3.51815 71.799 0.707031 68.3573 0.707031H6.56528C3.12363 0.707031 0.3125 3.51815 0.3125 6.9598V48.0757C0.3125 51.5173 3.12363 54.3284 6.56528 54.3284H62.5249L64.075 61.2117C64.3902 62.5779 66.203 62.8932 66.9649 61.7109L70.2752 56.509C70.8794 55.537 71.7727 54.7751 72.8236 54.3284L78.4983 51.8851C79.7857 51.3334 79.7594 49.4944 78.4721 48.9689L78.4458 48.9952ZM6.59154 2.70371H68.3836C70.7481 2.70371 72.6396 4.62158 72.6396 6.9598V8.66749H2.30919V6.9598C2.30919 4.59531 4.22706 2.70371 6.56528 2.70371H6.59154ZM6.59154 52.358C4.22704 52.358 2.33545 50.4402 2.33545 48.1019V10.6379H72.6659V46.6307L62.4461 42.5585C61.2638 42.0856 60.029 43.1365 60.318 44.3713L62.1045 52.3318H6.59154V52.358Z" fill="url(#paint0_linear_587_35614)"/>
<defs>
<linearGradient id="paint0_linear_587_35614" x1="9.3663" y1="69.4295" x2="58.4085" y2="-13.5826" gradientUnits="userSpaceOnUse">
<stop stop-color="#255983"/>
<stop offset="1" stop-color="#76C2FF"/>
</linearGradient>
</defs>
</svg>
