<svg width="75" height="64" viewBox="0 0 75 64" fill="none" xmlns="http://www.w3.org/2000/svg">
<path d="M18.3379 9.77237C18.3379 9.22065 18.7846 8.77402 19.3363 8.77402H22.1737C22.7254 8.77402 23.172 9.22065 23.172 9.77237C23.172 10.3241 22.7254 10.7707 22.1737 10.7707H19.3363C18.7846 10.7707 18.3379 10.3241 18.3379 9.77237ZM54.935 45.0821H52.0976C51.5459 45.0821 51.0993 45.5287 51.0993 46.0804C51.0993 46.6322 51.5459 47.0788 52.0976 47.0788H54.935C55.4867 47.0788 55.9334 46.6322 55.9334 46.0804C55.9334 45.5287 55.4867 45.0821 54.935 45.0821ZM74.2713 7.06634V48.1822C74.2713 51.6239 71.4602 54.435 68.0185 54.435H47.7627V61.581H54.4358C54.9876 61.581 55.4342 62.0276 55.4342 62.5793C55.4342 63.131 54.9876 63.5777 54.4358 63.5777H19.8092C19.2575 63.5777 18.8108 63.131 18.8108 62.5793C18.8108 62.0276 19.2575 61.581 19.8092 61.581H26.4823V54.435H6.25277C2.81112 54.435 0 51.6239 0 48.1822V7.06634C0 3.62469 2.81112 0.839844 6.25277 0.839844H68.0448C71.4865 0.839844 74.2976 3.65096 74.2976 7.09261L74.2713 7.06634ZM28.4527 54.5926V61.3971H45.8186V54.5926H28.4527ZM72.3009 48.1822V47.0525H59.7165C59.1648 47.0525 58.7182 46.6059 58.7182 46.0542C58.7182 45.5025 59.1648 45.0558 59.7165 45.0558H72.3009V10.7444H26.6662C26.1145 10.7444 25.6679 10.2978 25.6679 9.74609C25.6679 9.19438 26.1145 8.74775 26.6662 8.74775H72.3009V7.04007C72.3009 4.67557 70.383 2.78398 68.0448 2.78398H6.25277C3.88827 2.78398 1.99668 4.70185 1.99668 7.04007V8.74775H14.581C15.1327 8.74775 15.5794 9.19438 15.5794 9.74609C15.5794 10.2978 15.1327 10.7444 14.581 10.7444H1.97041V45.0821H47.6051C48.1568 45.0821 48.6034 45.5287 48.6034 46.0804C48.6034 46.6322 48.1568 47.0788 47.6051 47.0788H1.97041V48.2085C1.97041 50.573 3.88827 52.4646 6.22649 52.4646H68.0185C70.383 52.4646 72.2746 50.5467 72.2746 48.2085L72.3009 48.1822ZM34.6267 33.4435H65.9168C66.4685 33.4435 66.9151 32.9969 66.9151 32.4452C66.9151 31.8935 66.4685 31.4469 65.9168 31.4469H34.6267C34.0749 31.4469 33.6283 31.8935 33.6283 32.4452C33.6283 32.9969 34.0749 33.4435 34.6267 33.4435ZM66.9151 38.0937C66.9151 37.542 66.4685 37.0954 65.9168 37.0954H34.6267C34.0749 37.0954 33.6283 37.542 33.6283 38.0937C33.6283 38.6454 34.0749 39.0921 34.6267 39.0921H65.9168C66.4685 39.0921 66.9151 38.6454 66.9151 38.0937ZM34.6267 20.5965H45.9762C46.5279 20.5965 46.9746 20.1499 46.9746 19.5981C46.9746 19.0464 46.5279 18.5998 45.9762 18.5998H34.6267C34.0749 18.5998 33.6283 19.0464 33.6283 19.5981C33.6283 20.1499 34.0749 20.5965 34.6267 20.5965ZM34.6267 26.245H43.5592C44.1109 26.245 44.5575 25.7984 44.5575 25.2466C44.5575 24.6949 44.1109 24.2483 43.5592 24.2483H34.6267C34.0749 24.2483 33.6283 24.6949 33.6283 25.2466C33.6283 25.7984 34.0749 26.245 34.6267 26.245ZM29.2409 18.232V36.5699C29.2409 38.1725 27.9535 39.4599 26.3509 39.4599H9.58933C7.98673 39.4599 6.69939 38.1725 6.69939 36.5699V18.232C6.69939 16.6294 7.98673 15.3421 9.58933 15.3421H26.3509C27.9535 15.3421 29.2409 16.6294 29.2409 18.232ZM8.6698 18.232V32.7867L19.6253 26.3763C20.7287 25.7195 22.1474 25.8246 23.172 26.6391L27.2705 29.9756V18.232C27.2705 17.7328 26.8501 17.3125 26.3509 17.3125H9.58933C9.09016 17.3125 8.6698 17.7328 8.6698 18.232ZM27.2705 36.5699V32.4978L21.911 28.1629C21.5431 27.8739 21.0177 27.8213 20.5973 28.0578L8.64353 35.0462V36.5699C8.64353 37.0691 9.06388 37.4895 9.56305 37.4895H26.3247C26.8238 37.4895 27.2442 37.0691 27.2442 36.5699H27.2705ZM10.3249 22.5406C10.3249 20.4651 12.0326 18.7574 14.1081 18.7574C16.1836 18.7574 17.8913 20.4651 17.8913 22.5406C17.8913 24.6161 16.1836 26.3238 14.1081 26.3238C12.0326 26.3238 10.3249 24.6161 10.3249 22.5406ZM12.2954 22.5406C12.2954 23.539 13.1098 24.3534 14.1081 24.3534C15.1065 24.3534 15.9209 23.539 15.9209 22.5406C15.9209 21.5423 15.1065 20.7278 14.1081 20.7278C13.1098 20.7278 12.2954 21.5423 12.2954 22.5406ZM50.4425 26.8755H48.5509L52.8332 16.3141H54.7248L59.0072 26.8755H57.0368L56.0122 24.3008H51.4934L50.4688 26.8755H50.4425ZM52.0714 22.7771H55.4079L54.8562 21.3321C54.5147 20.3863 54.0943 19.2303 53.8053 18.3896H53.779C53.4638 19.2566 53.0434 20.3863 52.6756 21.3321L52.0976 22.7771H52.0714ZM63.815 22.7508V22.3042C63.815 21.4109 63.2107 21.0168 62.081 21.0168C61.2403 21.0168 60.5047 21.2533 60.0318 21.5423V20.0448C60.5573 19.7295 61.398 19.4931 62.4488 19.4931C64.393 19.4931 65.5752 20.36 65.5752 22.0677V24.8788C65.5752 25.2204 65.7329 25.5094 66.2058 25.5094C66.3634 25.5094 66.521 25.4568 66.6524 25.4043V26.7967C66.3897 26.8755 66.0481 26.9806 65.6803 26.9806C64.971 26.9806 64.4455 26.7442 64.1565 26.2713C63.6836 26.6653 62.9217 27.0069 62.0022 27.0069C60.5835 27.0069 59.5064 26.245 59.5064 24.8526C59.5064 23.3288 60.6886 22.6194 62.4751 22.6194C62.9217 22.6194 63.4209 22.672 63.8938 22.7245L63.815 22.7508ZM63.815 23.9068C63.4735 23.8542 63.0268 23.8017 62.659 23.8017C61.8446 23.8017 61.1615 24.0381 61.1615 24.7475C61.1615 25.378 61.687 25.667 62.37 25.667C62.9217 25.667 63.4997 25.4831 63.815 25.1941V23.9068Z" fill="url(#paint0_linear_587_35613)"/>
<defs>
<linearGradient id="paint0_linear_587_35613" x1="8.5" y1="70.6797" x2="60.1547" y2="-10.093" gradientUnits="userSpaceOnUse">
<stop stop-color="#255983"/>
<stop offset="1" stop-color="#76C2FF"/>
</linearGradient>
</defs>
</svg>
