<svg width="62" height="68" viewBox="0 0 62 68" fill="none" xmlns="http://www.w3.org/2000/svg">
<path d="M41.1773 56.9434H20.7709C20.1423 56.9434 19.6484 57.4372 19.6484 58.0658C19.6484 58.6944 20.1423 59.1883 20.7709 59.1883H41.1773C41.8059 59.1883 42.2998 58.6944 42.2998 58.0658C42.2998 57.4372 41.8059 56.9434 41.1773 56.9434Z" fill="url(#paint0_linear_731_29669)"/>
<path d="M39.5287 61.2109H22.3998C21.7712 61.2109 21.2773 61.7048 21.2773 62.3334C21.2773 62.962 21.7712 63.4559 22.3998 63.4559H39.5287C40.1572 63.4559 40.6511 62.962 40.6511 62.3334C40.6511 61.7048 40.1572 61.2109 39.5287 61.2109Z" fill="url(#paint1_linear_731_29669)"/>
<path d="M35.4948 65.4746H26.4701C25.8415 65.4746 25.3477 65.9685 25.3477 66.5971C25.3477 67.2257 25.8415 67.7195 26.4701 67.7195H35.4948C36.1233 67.7195 36.6172 67.2257 36.6172 66.5971C36.6172 65.9685 36.1233 65.4746 35.4948 65.4746Z" fill="url(#paint2_linear_731_29669)"/>
<path d="M51.1422 31.3041C51.1422 25.9162 49.032 20.8651 45.2156 17.0487C41.7135 13.5466 37.0665 11.4813 32.1052 11.2344V11.1895H29.8603V11.2344C19.8928 11.8405 11.0253 20.9774 10.8457 30.9673C10.8457 31.2816 10.8457 31.6183 10.8457 32.0449H10.8008L11.0028 34.0429L11.0926 34.2898C11.6763 38.2858 13.3825 41.9226 16.0315 44.841C17.8499 46.8614 18.8601 49.3533 18.8601 51.8901C18.8601 53.6636 20.2968 55.1004 22.0479 55.1004H39.8727C41.6686 55.1004 43.0829 53.686 43.0829 51.8901C43.0829 49.3758 44.0931 46.8614 45.934 44.7961C48.5606 41.8777 50.2667 38.2409 50.8504 34.2898H50.9177L51.1198 32.3592V32.0449H51.0973V32C51.0973 31.7755 51.1198 31.5734 51.1198 31.349L51.1422 31.3041ZM30.9827 46.9063C29.1194 46.9063 27.6153 45.3798 27.6153 43.5165C27.6153 41.6532 29.1194 40.1491 30.9827 40.1491H32.1052V34.2449H34.8665C35.4053 36.849 37.6951 38.7123 40.389 38.7123C43.0829 38.7123 45.3503 36.849 45.8891 34.2449H48.6504C48.0891 37.5899 46.585 40.7103 44.2952 43.2696C42.0727 45.739 40.8604 48.7921 40.8604 51.8452C40.8604 52.384 40.4339 52.8105 39.8951 52.8105H32.1052V46.9063H30.9827ZM30.9827 19.3161C32.846 19.3161 34.3726 20.8202 34.3726 22.6835C34.3726 24.5468 32.846 26.0734 30.9827 26.0734H29.8603V32H26.897C26.3582 29.4183 24.0459 27.4877 21.3744 27.4877C18.7029 27.4877 16.3907 29.4183 15.8519 32H13.0906C13.0906 31.6408 13.0906 31.3041 13.0906 30.9898C13.2478 22.1447 21.0601 14.0181 29.8603 13.4344V19.3161H30.9827ZM17.9846 34.2449V33.1225C17.9846 31.2592 19.5111 29.7326 21.3744 29.7326C23.2377 29.7326 24.7643 31.2592 24.7643 33.1225V34.2449H29.8603V38.0164C27.2786 38.5552 25.3704 40.8675 25.3704 43.5165C25.3704 46.1655 27.2786 48.5002 29.8603 49.039V52.8105H22.0703C21.5316 52.8105 21.1275 52.384 21.1275 51.8452C21.1275 48.7472 19.9152 45.7165 17.7152 43.2696C15.4029 40.7328 13.8988 37.6123 13.3376 34.2449H17.9846ZM43.7564 33.1225C43.7564 34.9633 42.2523 36.4674 40.389 36.4674C38.5257 36.4674 36.9992 34.9633 36.9992 33.1225V32H32.1052V28.206C34.6869 27.6673 36.6175 25.355 36.6175 22.6835C36.6175 20.012 34.6869 17.6998 32.1052 17.1834V13.4344C36.4604 13.7038 40.5237 15.5222 43.6442 18.6202C47.034 22.01 48.8973 26.4999 48.8973 31.2816C48.8973 31.5061 48.8973 31.753 48.8973 31.9775H43.7564V33.1225Z" fill="url(#paint3_linear_731_29669)"/>
<path d="M6.00042 22.4616L1.51055 20.7554C1.24116 20.6432 0.926871 20.6656 0.657479 20.7779C0.388087 20.9126 0.163594 21.1146 0.0737967 21.4065C-0.03845 21.6759 -0.0160007 21.9902 0.096246 22.2595C0.230942 22.5289 0.432986 22.731 0.724827 22.8432L5.21469 24.5494C5.34939 24.5943 5.48409 24.6167 5.61878 24.6167C6.09022 24.6167 6.49431 24.3249 6.6739 23.8983C6.78615 23.629 6.7637 23.3147 6.65145 23.0453C6.51676 22.7759 6.31471 22.5738 6.02287 22.4616H6.00042Z" fill="url(#paint4_linear_731_29669)"/>
<path d="M12.9821 13.9295C13.2515 13.9295 13.5209 13.8397 13.723 13.6377C13.9475 13.4356 14.0822 13.1662 14.1046 12.8744C14.1046 12.5826 14.0148 12.2907 13.8352 12.0662L10.6474 8.47433C10.4454 8.24984 10.176 8.11514 9.86169 8.09269C9.56985 8.07024 9.27801 8.18249 9.05351 8.36208C8.82902 8.56413 8.69432 8.83352 8.67188 9.12536C8.67188 9.4172 8.76167 9.70904 8.94127 9.93354L12.1291 13.5254C12.3311 13.7724 12.6454 13.9071 12.9597 13.9071L12.9821 13.9295Z" fill="url(#paint5_linear_731_29669)"/>
<path d="M23.3987 7.03766C23.5109 7.53154 23.9599 7.89073 24.4763 7.89073C24.5661 7.89073 24.6559 7.89073 24.7457 7.86828C25.3518 7.71114 25.711 7.10501 25.5763 6.49887L24.4314 1.85186C24.2742 1.26818 23.6905 0.886541 23.062 1.02124C22.4558 1.17838 22.0966 1.78451 22.2313 2.39065L23.3763 7.03766H23.3987Z" fill="url(#paint6_linear_731_29669)"/>
<path d="M37.202 7.8712C37.202 7.8712 37.3816 7.89365 37.4714 7.89365C37.9877 7.89365 38.4367 7.53446 38.5489 7.04058L39.6939 2.37111C39.851 1.76498 39.4694 1.15885 38.8632 1.00171C38.2571 0.86701 37.651 1.24865 37.5163 1.83233L36.3714 6.50179C36.2142 7.10792 36.5959 7.71406 37.202 7.8712Z" fill="url(#paint7_linear_731_29669)"/>
<path d="M51.3199 8.47809L48.1321 12.07C47.9301 12.2945 47.8403 12.5863 47.8627 12.8782C47.8627 13.17 48.0199 13.4618 48.2444 13.6414C48.4464 13.821 48.7158 13.9333 48.9852 13.9333C49.2995 13.9333 49.6138 13.7986 49.8383 13.5516L53.0261 9.95974C53.2281 9.73525 53.3179 9.44341 53.2955 9.15157C53.2955 8.85973 53.1383 8.56788 52.9138 8.38829C52.4424 7.9842 51.7465 8.00665 51.3199 8.47809Z" fill="url(#paint8_linear_731_29669)"/>
<path d="M61.31 20.7778C61.0406 20.6432 60.7263 20.6432 60.4569 20.7554L55.967 22.4615C55.6976 22.5738 55.4731 22.7758 55.3384 23.0452C55.2262 23.3146 55.2037 23.6289 55.316 23.8983C55.4731 24.3248 55.8997 24.6167 56.3711 24.6167C56.5058 24.6167 56.6405 24.5942 56.7752 24.5493L61.2651 22.8432C61.5344 22.7309 61.7589 22.5289 61.8936 22.2595C62.0059 21.9901 62.0283 21.6758 61.9161 21.4064C61.8038 21.137 61.6018 20.9125 61.3324 20.7778H61.31Z" fill="url(#paint9_linear_731_29669)"/>
<defs>
<linearGradient id="paint0_linear_731_29669" x1="7.09194" y1="75.2752" x2="66.3909" y2="2.55431" gradientUnits="userSpaceOnUse">
<stop stop-color="#255983"/>
<stop offset="1" stop-color="#76C2FF"/>
</linearGradient>
<linearGradient id="paint1_linear_731_29669" x1="7.09194" y1="75.2752" x2="66.3909" y2="2.55431" gradientUnits="userSpaceOnUse">
<stop stop-color="#255983"/>
<stop offset="1" stop-color="#76C2FF"/>
</linearGradient>
<linearGradient id="paint2_linear_731_29669" x1="7.09194" y1="75.2752" x2="66.3909" y2="2.55431" gradientUnits="userSpaceOnUse">
<stop stop-color="#255983"/>
<stop offset="1" stop-color="#76C2FF"/>
</linearGradient>
<linearGradient id="paint3_linear_731_29669" x1="7.09194" y1="75.2752" x2="66.3909" y2="2.55431" gradientUnits="userSpaceOnUse">
<stop stop-color="#255983"/>
<stop offset="1" stop-color="#76C2FF"/>
</linearGradient>
<linearGradient id="paint4_linear_731_29669" x1="7.09194" y1="75.2752" x2="66.3909" y2="2.55431" gradientUnits="userSpaceOnUse">
<stop stop-color="#255983"/>
<stop offset="1" stop-color="#76C2FF"/>
</linearGradient>
<linearGradient id="paint5_linear_731_29669" x1="7.09194" y1="75.2752" x2="66.3909" y2="2.55431" gradientUnits="userSpaceOnUse">
<stop stop-color="#255983"/>
<stop offset="1" stop-color="#76C2FF"/>
</linearGradient>
<linearGradient id="paint6_linear_731_29669" x1="7.09194" y1="75.2752" x2="66.3909" y2="2.55431" gradientUnits="userSpaceOnUse">
<stop stop-color="#255983"/>
<stop offset="1" stop-color="#76C2FF"/>
</linearGradient>
<linearGradient id="paint7_linear_731_29669" x1="7.09194" y1="75.2752" x2="66.3909" y2="2.55431" gradientUnits="userSpaceOnUse">
<stop stop-color="#255983"/>
<stop offset="1" stop-color="#76C2FF"/>
</linearGradient>
<linearGradient id="paint8_linear_731_29669" x1="7.09194" y1="75.2752" x2="66.3909" y2="2.55431" gradientUnits="userSpaceOnUse">
<stop stop-color="#255983"/>
<stop offset="1" stop-color="#76C2FF"/>
</linearGradient>
<linearGradient id="paint9_linear_731_29669" x1="7.09194" y1="75.2752" x2="66.3909" y2="2.55431" gradientUnits="userSpaceOnUse">
<stop stop-color="#255983"/>
<stop offset="1" stop-color="#76C2FF"/>
</linearGradient>
</defs>
</svg>
