<svg width="57" height="51" viewBox="0 0 57 51" fill="none" xmlns="http://www.w3.org/2000/svg">
<path d="M22.8059 11.0176C18.8548 11.0176 15.6445 14.2278 15.6445 18.1789C15.6445 22.13 18.8548 25.3403 22.8059 25.3403C26.757 25.3403 29.9672 22.13 29.9672 18.1789C29.9672 14.2278 26.757 11.0176 22.8059 11.0176ZM27.7222 18.1789C27.7222 20.8953 25.5222 23.0953 22.8059 23.0953C20.0895 23.0953 17.8895 20.8953 17.8895 18.1789C17.8895 15.4625 20.0895 13.2625 22.8059 13.2625C25.5222 13.2625 27.7222 15.4625 27.7222 18.1789Z" fill="url(#paint0_linear_731_29671)"/>
<path d="M56.2356 9.29402C55.9886 8.26136 55.3601 7.36338 54.4396 6.80215L49.9498 4.01843C48.0865 2.87351 45.6395 3.4572 44.517 5.32049L41.3292 10.4838C37.7598 5.63478 31.7209 0 22.8085 0C7.72258 0 0.875519 15.939 0.134691 17.7799L0 18.184L0.157128 18.5656C0.224476 18.7452 7.07154 36.3455 22.831 36.3455C23.7065 36.3455 24.582 36.2557 25.4575 36.1434L25.2779 36.4128C24.6943 37.3332 24.3575 38.3884 24.3126 39.4884L23.7514 49.86C23.7514 50.1967 23.9085 50.511 24.2004 50.6906C24.3575 50.7804 24.5371 50.8253 24.6943 50.8253C24.8514 50.8253 25.0086 50.7804 25.1432 50.713L34.1903 45.5946C35.1332 45.0558 35.9189 44.2925 36.4802 43.3721L55.7417 12.2573C56.3029 11.3594 56.4825 10.3042 56.2356 9.27157V9.29402ZM27.0065 33.6291C25.682 33.9658 24.2902 34.1454 22.8085 34.1454C9.65322 34.1454 3.30006 20.2942 2.42453 18.2289C3.30006 16.1411 9.60832 2.26738 22.8085 2.26738C31.1821 2.26738 36.7944 7.83482 40.0496 12.5492L27.0065 33.6291ZM33.2475 43.5966L26.0861 47.6599L26.5351 39.4659L33.2475 43.6191V43.5966ZM50.9824 15.7145L34.774 41.9129L27.3433 37.3108L43.5517 11.1124L50.9824 15.7145ZM53.8335 11.1349L52.1722 13.8063L44.7415 9.20423L46.4028 6.51031C46.6497 6.12867 47.0313 5.83683 47.4803 5.74703C47.9293 5.63478 48.4007 5.72458 48.8048 5.94907L53.2723 8.71034C53.6539 8.95728 53.9457 9.33892 54.0355 9.78791C54.1478 10.2369 54.058 10.7083 53.8335 11.1124V11.1349Z" fill="url(#paint1_linear_731_29671)"/>
<defs>
<linearGradient id="paint0_linear_731_29671" x1="6.44601" y1="56.5788" x2="49.3893" y2="-6.28093" gradientUnits="userSpaceOnUse">
<stop stop-color="#255983"/>
<stop offset="1" stop-color="#76C2FF"/>
</linearGradient>
<linearGradient id="paint1_linear_731_29671" x1="6.44601" y1="56.5788" x2="49.3893" y2="-6.28093" gradientUnits="userSpaceOnUse">
<stop stop-color="#255983"/>
<stop offset="1" stop-color="#76C2FF"/>
</linearGradient>
</defs>
</svg>
