<svg width="48" height="59" viewBox="0 0 48 59" fill="none" xmlns="http://www.w3.org/2000/svg">
<path d="M28.2862 25.3937C27.0515 21.0834 23.0779 18.0977 18.5881 18.0977H10.1022C4.53477 18.0977 0 22.6324 0 28.1999V51.6594C0 52.288 0.493885 52.7819 1.12247 52.7819C1.75105 52.7819 2.24493 52.288 2.24493 51.6594V28.1999C2.24493 23.8671 5.76948 20.3426 10.1022 20.3426H18.5881C21.8881 20.3426 24.7841 22.363 25.9514 25.4386C21.933 25.8202 18.8574 29.1876 18.8574 33.251V53.8145C18.8574 56.5309 21.0575 58.731 23.7739 58.731C26.4902 58.731 28.6903 56.5309 28.6903 53.8145V28.1999C28.6903 28.0203 28.6903 27.8182 28.6903 27.6386H37.4455C41.7782 27.6386 45.3028 31.1632 45.3028 35.4959V57.6085C45.3028 58.2371 45.7967 58.731 46.4252 58.731C47.0538 58.731 47.5477 58.2371 47.5477 57.6085V35.4959C47.5477 29.9285 43.0129 25.3937 37.4455 25.3937H28.2862ZM26.4453 28.1999V53.8145C26.4453 55.2962 25.2331 56.486 23.7739 56.486C22.3146 56.486 21.1024 55.2738 21.1024 53.8145V33.251C21.1024 30.2652 23.482 27.7958 26.4453 27.6386C26.4453 27.8182 26.4453 27.9978 26.4453 28.1999Z" fill="url(#paint0_linear_731_29670)"/>
<path d="M14.3426 15.8492C18.7202 15.8492 22.2672 12.3022 22.2672 7.92461C22.2672 3.54699 18.7202 0 14.3426 0C9.96498 0 6.41797 3.54699 6.41797 7.92461C6.41797 12.3022 9.96498 15.8492 14.3426 15.8492ZM8.6629 7.92461C8.6629 4.80416 11.1997 2.24493 14.3426 2.24493C17.4855 2.24493 20.0223 4.78171 20.0223 7.92461C20.0223 11.0675 17.4855 13.6043 14.3426 13.6043C11.1997 13.6043 8.6629 11.0675 8.6629 7.92461Z" fill="url(#paint1_linear_731_29670)"/>
<path d="M33.698 22.6559C38.0757 22.6559 41.6227 19.1089 41.6227 14.7313C41.6227 10.3536 38.0757 6.80664 33.698 6.80664C29.3204 6.80664 25.7734 10.3536 25.7734 14.7313C25.7734 19.1089 29.3204 22.6559 33.698 22.6559ZM28.0184 14.7313C28.0184 11.6108 30.5551 9.05157 33.698 9.05157C36.841 9.05157 39.3777 11.5883 39.3777 14.7313C39.3777 17.8742 36.841 20.4109 33.698 20.4109C30.5551 20.4109 28.0184 17.8742 28.0184 14.7313Z" fill="url(#paint2_linear_731_29670)"/>
<defs>
<linearGradient id="paint0_linear_731_29670" x1="5.43968" y1="65.3794" x2="58.5903" y2="8.56215" gradientUnits="userSpaceOnUse">
<stop stop-color="#255983"/>
<stop offset="1" stop-color="#76C2FF"/>
</linearGradient>
<linearGradient id="paint1_linear_731_29670" x1="5.43968" y1="65.3794" x2="58.5903" y2="8.56215" gradientUnits="userSpaceOnUse">
<stop stop-color="#255983"/>
<stop offset="1" stop-color="#76C2FF"/>
</linearGradient>
<linearGradient id="paint2_linear_731_29670" x1="5.43968" y1="65.3794" x2="58.5903" y2="8.56215" gradientUnits="userSpaceOnUse">
<stop stop-color="#255983"/>
<stop offset="1" stop-color="#76C2FF"/>
</linearGradient>
</defs>
</svg>
